<mxfile host="Electron" agent="Mozilla/5.0 (Macintosh; Intel Mac OS X 10_15_7) AppleWebKit/537.36 (KHTML, like Gecko) draw.io/25.0.2 Chrome/128.0.6613.186 Electron/32.2.5 Safari/537.36" version="25.0.2">
  <diagram name="Page-1" id="rvJ7P8eitGcZFzObmhDA">
    <mxGraphModel dx="3311" dy="2771" grid="1" gridSize="10" guides="1" tooltips="1" connect="1" arrows="1" fold="1" page="1" pageScale="1" pageWidth="827" pageHeight="1169" math="0" shadow="0">
      <root>
        <mxCell id="0" />
        <mxCell id="1" parent="0" />
        <mxCell id="yfoGOaeAojlxQzWnKSBf-44" value="" style="group" parent="1" vertex="1" connectable="0">
          <mxGeometry x="-710" y="1040" width="530" height="170" as="geometry" />
        </mxCell>
        <mxCell id="yfoGOaeAojlxQzWnKSBf-45" value="" style="shape=note;whiteSpace=wrap;html=1;backgroundOutline=1;darkOpacity=0.05;" parent="yfoGOaeAojlxQzWnKSBf-44" vertex="1">
          <mxGeometry width="530" height="170" as="geometry" />
        </mxCell>
        <mxCell id="yfoGOaeAojlxQzWnKSBf-46" value="&lt;h1 style=&quot;margin-top: 0px;&quot;&gt;&lt;font style=&quot;&quot;&gt;&lt;span style=&quot;background-color: initial;&quot;&gt;&lt;font style=&quot;font-size: 21px;&quot;&gt;sales-report-job&lt;/font&gt;&lt;/span&gt;&lt;span style=&quot;font-size: 16px; background-color: initial; font-weight: normal;&quot;&gt; -&amp;nbsp;&lt;/span&gt;&lt;span style=&quot;font-size: 20px;&quot;&gt;Dockerfile&lt;/span&gt;&lt;/font&gt;&lt;/h1&gt;&lt;div&gt;&lt;font style=&quot;&quot;&gt;&lt;div style=&quot;&quot;&gt;&lt;span style=&quot;font-size: 16px;&quot;&gt;ENV SPARK_JOB_APPS_DIR=/opt/spark/job-apps&lt;/span&gt;&lt;br&gt;&lt;/div&gt;&lt;div style=&quot;font-size: 16px;&quot;&gt;&lt;br&gt;&lt;/div&gt;&lt;div style=&quot;&quot;&gt;&lt;span style=&quot;font-size: 16px;&quot;&gt;ADD target/spark-batch-sales-report-job-*.jar $SPARK_JOB_APPS_DIR/spark-batch-sales-report-job.jar&lt;/span&gt;&lt;br&gt;&lt;/div&gt;&lt;/font&gt;&lt;/div&gt;" style="text;html=1;whiteSpace=wrap;overflow=hidden;rounded=0;" parent="yfoGOaeAojlxQzWnKSBf-44" vertex="1">
          <mxGeometry x="4.37" width="515.63" height="160" as="geometry" />
        </mxCell>
        <mxCell id="yfoGOaeAojlxQzWnKSBf-43" value="" style="rounded=0;whiteSpace=wrap;html=1;" parent="1" vertex="1">
          <mxGeometry x="-60" y="70" width="970" height="200" as="geometry" />
        </mxCell>
        <mxCell id="yfoGOaeAojlxQzWnKSBf-1" value="" style="rounded=0;whiteSpace=wrap;html=1;" parent="1" vertex="1">
          <mxGeometry x="-760" y="-30" width="2910" height="1830" as="geometry" />
        </mxCell>
        <mxCell id="yfoGOaeAojlxQzWnKSBf-2" value="&lt;font style=&quot;font-size: 29px;&quot;&gt;spark-job-service&lt;/font&gt;" style="swimlane;whiteSpace=wrap;html=1;startSize=60;" parent="1" vertex="1">
          <mxGeometry x="-720" y="420" width="1670" height="1090" as="geometry" />
        </mxCell>
        <mxCell id="yfoGOaeAojlxQzWnKSBf-4" value="" style="shape=image;verticalLabelPosition=bottom;labelBackgroundColor=default;verticalAlign=top;aspect=fixed;imageAspect=0;image=data:image/png,iVBORw0KGgoAAAANSUhEUgAAAGQAAABkCAYAAABw4pVUAAAAAXNSR0IArs4c6QAAAERlWElmTU0AKgAAAAgAAYdpAAQAAAABAAAAGgAAAAAAA6ABAAMAAAABAAEAAKACAAQAAAABAAAAZKADAAQAAAABAAAAZAAAAAAvu95BAAAeCklEQVR4Ae2dB5zUxfXA3+zu3YFgEDWGohQrJZZYQoJSBIIVEIRTEE40ipKo2LBGOGykWPLXUMQgKC1CooIFQfQQ1BS7xAKoKCCk+BdQIsfd7c7/+2Z3dvfgyu7e3d5dPv+5z+/m95t582bmvZk3M+/NzBppIO7gK+zR1sggitNbrLQxIm35DvG9me+t+K8ZI09tflBeFzG2gRS71otBvevXtbvSDrBW7qIUR6dSkoiVz4IiEzZ+V+ZJoYmkkqYxwdQbQ9peaQ8OWZkLM3plSLB3SDdy4xTzfobpG2SyemFIh5/bboihJ6FI6zhVrEQozJ8lIIsjEfl7MCibywgLRaQ1oqsTMmogT29gcnwamPl1MCAXfDrFPOPDGrufdYYoMwIRKRIjTT3xGBuWmDK5+eOHzAc+rCL/0DG2nc2R2xFUo0gfcDDKyIAM/WSKUQY3epdVhhx1hW1TFpa/kWlbpRwtfHcgIJevn2pmp0PJw39m+0tYHocl+8Xw7KR7nbxhmnkvHTwNETarDDnicrsSIvgxoxixddr6h8wqT5jCIhuCyP3pMafDrA7aC3jfzPsKGPBM4amm2MMe8TPb2UbkFSqwv4Yh1ta1CMv335xhSj1MY/SzxpBOlzGbElniiQQBC9ZNN3P892+KbD/Cfsf3UT5sD38zzLlufC+z0IcfeZntC1OfJ1ynx9rjrlg3w0zx8Y3RzxpDOl9mVZy4qS2EW/LRDKNrDuceeNFeSm+YRmGY0VbjrEy6sq8p9FBdxtgHYeQV+g3efxWXSPvPZid6kodrLH50YKzj0h49xh4dsKKPMKBHgkZu9lk+ssL2a2pl2j4RCTZlVVHtY2XizBdsgU8fCsgd4NypuOHmQc1zpJ+Pa4x+VhiCWBmsa2v3ROS192OzqYULbTA3LA+kzIwYw/LCcu/CF2wLJfh7082/wL/E4+c93vP+nyGVUABi9XS9Q3sIU1wPFmohZ9A7OjeB0Ok8zJcPpFeMiONhbPL46SW9fXhj9N1gWNcFpxse7PNgZvSuf28Slv7+PQP/dNJM03Qw4T146hw8d1Pq2Gej87LDEJSFEMq5YMQpCt07vaMDIiZT194nZGG4xYSjX0wMmh491rZcM81s8/GNyc8KQ1hZB5maOhfIEd+YJS8iARU1mTiQxMteHJJwk7IEllBxIi4R2jje4pWqy+IyhvwTfnR0eYSd/sopBJuHWfRlmDEr840+adNiaauDunNWSt/sIP/r4xqbn5VZFgrALZqRPhCukydS07CsqHaaS1eoCAZmvuDx0KqO8viZNPyjMavls8IQ1B6rtAXrw+xooCckg/qzTGE3pzPDUljSfIM2eL7HY8tkkMePeHzZhzdGPysiK8fKc9Axuhi00vuUAtvulcfMxkPyza6tf7TXscJ+PB3iIf4mtR5k/qlpTr7Y7mvDrD1iIotV+9J0cO0JO2yYDW7OQ7wGZH/yCWIQ2/5NsXzy/iJTsidsXXxnhSGtd8mftzaRT1CPHEYlciDeHfgXaoVaDzULv1hku1D5ifpdnQNuVquhcp+HC5TJeHhxQOx7W2mZpG0b6XaB/U5uSC6A+EO3iHRjGt0sjp8MWzaRUhrRm5R/QahE5q9cYL708bXtk112XM8CqwyY7XLDhgERz1w9xyzzuW9dZAsIu5fvA31Ysk/cTsTSxNbD5H5jVECxAhxtj4uE5VUItY9+Ezhh9WNGmZ2S693bhiLt5HqAb+BpmVIikRJyn4K2bMLKRWZnimlSBssaQ7Ty9mDRVnaMlg4xtZ337qvmmA99ab9aaFsUB2Q4E+PTiTsUGJ0Vb2SgWxEIydxWQ1CTxBzMaMXY8Vfg2mkQsF/k7pauKxaZHR6mKv+UEfZQdGpzEU0/3guOmRqi7yuIEwFvS6bsTfaCEdlkAzJy1aMJ80EFMGkHZY0hWrJTR1pVrb/B01y/mbp+xSCfXzTPvKjfqbreI+xxEGwxMyrHDNKVwbQ+L841q1PB0XuU/T6MfhluO1tKLM02wmYyI3wit4W8tfRBs1vDtSEF20kXzMpD6dYXJuWp0btgWP7KebVnQs4qQ7QG/Ubac1GfLKBle9t4GSJgek6p3L50kfm3wlTmdABvUuzGjOtotU5MAWv5u/rF+eaBytIlh/ejZ0D4V8i/tQ/n++FAiYyvrncx4Oduy5EbgL+V9NFeQ29CU9B/xVyz0uOriZ91hmhh+19gz6ZSamiK29V5V3n8NC3/KVrd33PZjxVqJmWl38ohaEW0Zw1ElJ0DIfwArmNGGMZc/sJc83viq3WFhTbw6no2Uoj8MAZcBgFGLp9n0prl9R1ufwwTniVtdNyxsjlQKscuW2S+qrYQ1QDUC0O0TP1H2BMg/EwIemw1Zaw4OiIbIMqYZfPNiooB9g7tP9z+DIZ6i6Il/4IXFpi5HnLyatuSnS6jEWXnIU4Pp+cyY5fPKONyYKfe1sts8LBaflqE9jTXU1j/zF72B3ORj8/UrzeGaIFPGGNzDvpaxoWNXM0YkJqW1sr/UuiHwjly9/I55j+pVlzFzddB+QLiRmdxVmY/n0TA+4qsTiQehcgHVYjTyi7Sjr/m1ISJ+LQRdhxM+62DR3SxgeNwxN7GCtOnGAgd6s/phoSlfzD3lGyVDmyaGxK08giD/BoqGdbpVexhMiNreZ/LU1DcRA4mza3pMENr+J+QDGB9caDihKHf5EBcX/NpL9nTUM8s3icsB2EskwofK02B+d30FXacT/fjI+VB8K1TnJQxJycoV/q4TP167SGVFfrs820hcRM1nrrOfjapJWtYJu7sfPsEVBusaRFHs55bYC7W94ewPOaJfAgh4oO8hlfmKE8JBpjjR/eJ7pg86zw7lp4z1cEbWfvMAhPX1VWGo6rweu0hlRVMC0UvcY9ypDYcBP+Rx4l6QicUzrVkzGjG7sgKe0UFvQXY3Ga7E70rEpKnPV7GkSMHj7IVizyfYTV+w2QIhHBiAGbUhm5nwHB7IBVtHce5O2G1bIYeDFElaT1WzmJG4KTL0nlmM3g3xnCbyO7owrcaulcaXRv1rRR5phHaSpjVOKetr6aObar7+ZbH4q74iSfMVo+zaZl0QuSk6w5cvdRNDty6iTJ+CQq3SMX366N0cTr4hsuQjKpTcaKcCB0txhGI7xekDliph6hJ25WV6Nwg6pgsJDTBfsHoI9P0fcNJM1kdg0MgL5cTBt/M88zLw2JJT9MH0RJkCtzCY9unVNZXZACrJmxH98ES1yqAt30SfmcW8PjT9RtMD9FV9Jo1ciQEOx6DVi8Wfc4huo4fdq4dSwtf07Kl/HVGBnt358832/LPtWrWdat87CeqUHxeM0DP/hzfPfU9VQdfn/EaZ5j7XXpYfIbGyPJBqngqgqt3how41x6BbuvSD96TC5El0RmKCoPE2HEM71NhknzzpXwzfIh9kg407fEnzF8qqlClYVZWwWM37YVoZwLnGBLaJTNycpg1JalkKsVBBMUKA6tmAudYNw3V3hFzm/5QjT7OA1bm15vI0pY1YojVlfFaXQHTMg7SwlT1wKd9eQqQ2X+Gkc+dN9geWVnF9gwH/xKPmwXoRSPOsk4P1f4Csw0G/dQRes9EFXyTf2HboeZtjdJeDc4xHi+a4LhZuYKkKQUprqy7EYPtsJwyFmOsvHmcucnJ4AjKQsv5ESsL6DW/hVn38a4r9FcQC2oYio8tfJ/B6v6dC4agn6rSWTPyHJsPfGE8var/8+R2n6ztMLMYQgzne4cP29NHdJZRnpvbDDN3+riP35NL6SHHxfDqxHC2j8vUV+GQVTdqsL0KYmP18/MesrfyEZW5NydXFs+qpMvrQJxXKmdS4GtIcVK5QmPBm7NY1RZKmoQbNdCeSMD9jEenJELjb5YyDH7sSbPYh2xcYNvkhOQq0pxDWEf8IOJpE+V7lo14U9qcnzCmjRxsj4UZL9O73ASBOs2du8SM8rgy9bPKkIJB9kYy/GVSYb+m0jds3CEzV65ktZCSs6ZgkORD+vshVnwwJemURxebKxTFxQNtGxSWd9FkC/ZgfAkE1DVDG4Uj72LwnPfoEhPfb6zh6izi6IMuEuqav/fmBhrV92GGapm/54BFtkUC0mnOkwmLZiw8bS9rDLnwHI6hRWRpnEBWPuF94KzF5c8VcoqqCSuF44BtRW04bSBbsZu/y+mpcvbrS4bYg8vK5CmYcoKvNZW5lgF/Hyh9E7idVdLHAbeYbazX6zfzg7/wHZ1xYW0k3f3hXTJpzvKqtcc6Znz+jlxGb7iX9M6WA9NLA0EZMuvJ2rEaZoUhY4bY1hDvXWjxXSUIRNvAwbNus5YmLIT3rLJqJv0FBRoASHli0pJpzcsZB+4e38f8VXGoGzPA7gM1V/JaXoRppHfWaY+vmflMwkw8epDtQQtfAlHdGUUFhbBbEG2zYdr8tifIh4VJZ+DJpx09biAwY0nTJY6azRq8j5z1tFngw2rqZ4Uhlwywqg0d6wpr5Rsq1n3ms+bv+q2t7rs95HZEyU0UhglU5Y50TAHk4YO+lCvzY6JExRPEfZ1wJ4Z8ahj4Jb1kwo48mbFokd+K7WNFLjnLdiaNMuXwRGjsTcsYkK2IszA5HgRM3ErpYcG/FfwX/n6Jie+g9HE18eucIT8907Znd8c6KoVVFmdk3Iyno/ZvVdA9uoIbGaIzHBedyj+aZdHOUjnjqjOjGxFowedAuCd9Wgi5cHeOXDb7KbPdh1Xkj+pvmzXNkxsRQddDXCeCKoIrF6ZMCsgC9n9dm9zDy8HU4KPOp70MAj+nsrkxzn+6rYlM9+VduFwmovYenqrq28M1j8iprYJxU6zAYLXDv6p56APDwtUxQ8ugYwZpJ9igdISh12hP017h8ezhr6MevyKfLqQZVRfM0DJpnnXqLj/LfkAmnTUTKjNu+nPR3vHMM/ZQBJTuyYr2nExKYaTP2aebIk06VntJJNpLyGdX8bey/+yV6R/+1HEJjYHeHHEg+75UhG6jR6yd9mx2zpuwgK07d8UA2xE9kWMGuVBHic/50SHdQufPnBnRYt+M5xjCzGk5Wt1vaWKqwG26bzO39kh5A0QUnWhv+5b3t/x3tv06FVmsLE5gle2MTYiCD6c8Zz7XCuphT44iDPIiqAZ+nzeetm7TghKSvFb5/GD2D7JNzNrIr057CNxupd1CHf5n7oV/XXPlKKa4jpA+LEM/CANOJK1TFCLjP/N4mMIe5t8bk1+nDGHd0AoiebfFv3AupNwU1Ydn4oM+vn2IQXlLfFSMJNYYmeCtrzR1yhC0qoyvUUdLjrOGs4W6tadWHPh1ceYcGcT2xScF+shG4tcpQ+gdzlIXo0Vc7xQI05KrXAKmTj3Gprh9PHa3lksMw6tcg6SeQ3Yha6uhVlhqesU/tFu4x0oHD9Q6IOto2XETqA/PwC8tLeVIgndGOvj8qNgnPrgx+XXKEGTJm37WQ0Zdrutj2ytxTL7RxVd8CpwxwawUqYFJ0xeyfiCvXvH8IuKMSBnjrqeEdSqy7lluNtzUzy0MnUIuL+jsDP+jdYVwd8MwvRkuL9O6s8K+3actLpbTwOnUHwxc3zJxeMXHpeMrY0v+I50iQbadhiWIjm17XkjWFi6r+c72VMqhPbxO3S/62l8jnqL7aK18mnOAdC6MHaDkGNttxMWJmmZBHsZ6Nyaaxppb+rrLzLrrN1tFF0xeYUakiq+wt21VFpLhTMWHQ5DjaSR7jXAweT322ifC7D+e/KJZlyrudOHqVGRpYUJcSsbAu9vJdo6plX0V0/oSx+HNO/FUuZiWA9+LHHdyxihNeGsfOYeKdHd58I0KPQiR46r1ypBfj3Lxtj72jrKgfMpC6T5s4icxEUEXGhv3knzijgDmRmaOH9DI5tx8hnWmhMpwZxquede5m9jXTqGFedu3qrZPvmOFWaMZq8Z3yx/ZWG3lVohRpQgFh2XBN31bRK72lrxb+9i2UPB10sdncQ6vqt85BPrhARWr3wv7Yn/hWidg91pAks/XhP+Dp4wyKeH3Ij49+x80jNG3FyUOrgJXY5cVhtzVw7YuDSUMVJR6A1bBHxUuT5g8t/zRdoKov6CiAyjUd/ao2S7ilqHku6vNUPOGj1N5z7mrl/nW1XrFzkQNVBOLEgaqwj62J6sXtYU4e7hLyKFR8M9mHFoQ6VXeQHVnT3sIvWgAZdADP13jGXEZG2lGFRaZ+fGwGr5khSFaxkm97E/I7HkqFBWTjCe8DZxQVP4i5PXP2bzmO+VYelEbVvohxoMtwV3ybquC8uZVJRID7lM8x3sa0GKvBf8+MPUmwspbHTn/gd37esSZIY2acPePpdPdJPdFviOTCqOKRY9uL99t+1kpY4BXE64qMXnFhCsy5LaVjciE62t2R297I++JTQ6IBohz4/e+kZmXvZnabaIqte7qJeeT7j5wqd3dORj3IL3gKv0o/IltEyqNbnKINwCNsG4P7peEedWNbnLI/8XL5mmNTnaFlibxgYQKu+69yeH2U21X0qkm2eUPU7Zx1UfnW1+M3i6RjCfd96z1EF+wu3pZtuu4Y2DxCQUVWkdB7mUEWVxZpSafYluGA2wDMm4b0Aken/Mj8uAtq2WcofEnh9/Z256I8fZ+euIpyeH6DqDCDkpmxq2v2bb0Sj2mNojxpYMO8EBthoHPMLuaOrlnYkMGYvgYGsUqYJzYYwo/97aXG9k2IE+UyT3suVRyGt97DpZoudzlAp/CoK28R6i0brXpCPVOIgzbUTn3LWHX3rTKPFQuNOlDe9SvesowBupfk2f7pKjf3bzKaONw7q6X2Uxn5WFg9hy/PIgO8BNu7mkm+4DJvayKr3je9KnOt6w0H/n4THzqUz/u7r72gECx3EMlLqQQ6ZeDzWusC665YZVZn0oNaASjyWSWg7WyEwa3u/mV6Cr//iJ7DnF/5Nlr/bEXbpgyrnf0+o5CdKRNTuYihEDU9gLDfnXjKqPjV8YufUJknFXFCX/d3R5mQnIpGw1GwxbtDZU6xAIHaeVP+NNvXG3+VilgBRG/7GmfYAY1WKPodQ9AuHH6PpWj0Dm7RZm6184Sjd/TwUg9kHrSJT+J7u/9dQ925oNG4eiFm258xbTbM00633E5nk6i2oS94TXzyXha1bevcC9jRDpR2RE8K3mcpREbx3s8Y1lrnFwclAPGrzYXp8sMLS/7gOM3o2LqXerr0GKXjMFieUCqVkvOGAbR9Vzn0zehZ/my0lgOeaBHzRaMVS7EfKbZ8Av1HNOrspa81t57ij0Ked5b86ULv3XNq2a6vmfqdEIAU+M9oKTY3ebg0HEwR/cLp+esnK0LWj0jctVq8+97u1vdo+UWptj2dZ2yMj2ECegGw5BEkegZyKTadDlh+R4Ecw6xEr7pTbPD429ehkokbY5Ii+XL3YTkX4qHtc3njIWOIXTs6BkXn0GafsNkSFIlqGCNHXJZbwtyDnylyQh1FclMKW3HfuN4KiYXuf4DvzhtZEkJfDmTgur/VQvl5XJttJhmJbLd40PON7kfVY6vJSLro1THjzhcWL7scYZ86XEgbN0NES6PMFuRauAaJkMQWZ6AVLbGDi2AEm+rx5lblrjwhkFar9RI65w6aZ71Zwwf6GYPhojtFDfjns0JyHs1KXCDZIhWiMq5RytaGw48f/E42S+W73FyT9dsLg/YCpElxaeEm1F/49PT4wbG8XLvydjXEgpTD5OOn/5wlg72FGGxXYS+t4urXkXOZoA9kelvZwZh6urEO+OwrOf7DQb75bn7yOMXZbBFdPqP7BCk/p8cTna3Yw08NNZzZMsizq5wVxdPrsZX6dgsjsb5AYUpZGHY6ofyEWU+Ipbmnsv/asZXmb6ayHplyEMn0MODcjUUH0el4vurqiozsHoX4kNNdstdBe+V1wBXlW5hV5u7vRkq9tglmygjZ0O8i3wa1P+n0RAeg/GVzZJ2ke/1rYeZqT7NjG7cDOSvZ2KywFrnsItfN5t8fCZ+vTFk5g85/xeRmTDimEwKjiXiM1bcYy59I/XzGb8/yR0QnaL50etUGBZc+nriArMNT9r9uKT5IsqVD2MOByAXUfcZzFuOpXBqq3yzwZfVlV8vMONeZxfGBWaXvJlgsIdL168XhjxyvD2bbScLMYu6TQmu0IgR/CUQ4qlwRN4PNOV3DIslnBviJ1hL5SiIr79jOIT4+AJP1xRYEMf+9HXzcCoVVxFzyIlJV/xxshZ8BRe/kd4JqEdOst3RBusVf85MTDk2lZTIsT9bU/Md8llnyOwTuQRTuAQzprllQCzDcDSVQ8d3Xvx24ohbRQSe0tU2b9pExkPE64n3BiJLK7569JtRuV5RuuQwiHkoea4mzNtE9BLhh8vYiMGYEl8wJqfx7w8cbvP2beEuwbyFMqA1cU6vlP0JouplD1cTP6sMmXWC7USGr/NErXkRxgMjwwreMi+lU4k5P7DHwsTFpGmv6WihavXrO/rt1O7QfexE+312mKwk73hvA812GspMptl/irSQt/3EoYgJx+Yd0pWV+FDyuRARe4jmqY7vXXwPozE8Gw2p+f+sMUQrtmmHvAURjo4VWwnQHWZ86KvBCdz9QiEZAbFOR5x1cBbrgPu16BVlnAPnJK5uPHBu1km2VTDMVDbGFAK/yMPenV9NK48ll8eOsR3RMs/lu7sP874ymHJ+ha+3nqqpNzpOeAB84jYxDRx5QYqNIClpla9ZY8i84+xouvYsLY2rqJUzR75rlvvSYZMYDYPuoUDJrdZHq/8fiDNpXC9gYluqtacgfl6jlTrxBczEkW+b25MTVfWujeSLHXI9+d5Avi2rgvVxwJawePtdTolMzH+//FFtD1MTPysMWcgvDpSud3eaHBYr7KMj3jajfcFnrLCTKMgE/12VD9zsn/aViz1T5v/ATgLep93OmcYOqfYSn8/cbvY7wRJ6psgw8HcjvJmPc75elqyWTA57Irrmj4iu/MuB1NYH+de9W3CM7cFsaJXLSQ/ah+RwiLZRv+cts+fT8nWQT91ZuWHEacatlhcfZff9Ns/d4et71sjz3zHzUkdWHtI1no+kPSqQA2FAkCnv9sBu+YTeUFIesm6+ssKQhcfayRQ/atpktZ2/xpym1eFoW9O8fVmFJx26SamaaoLNlcMH9Yvu8nj8OPswLfgSTYtImXfeu2ZkSngaIBDiMAvOSg8I5veEPO1zPLCZDOCni9qiS5K0nog0b1YscaIzM4rfDMoCrqfH3xj9rDCEdUJbzUgfxFN8VgUT+nDmXDJ59o0kfmKV/cMfefx0kdaFtXdAK+s8DWUjRxhykJeNyOb41BVGHMyMKyPHYi6+HuAelS3g9S7U5QfM1N6ulQNBHmfW/OwwRDctxwjPuXWm71HHBZQ6z8/UxS1/XNEX4qeP4o4b9ONx8cBG8pIVhiDjt0B4twENvqjKwhlx0D18nmkPQTR97mnMJtQ2SXzdNfidqu848ekaop/o6HVYOrbwfOFlPPLer9QZUKLnyzPKOunX2MB/tMePryr2RuuywxD0RowjzixLbxnkqdUqIssI/sB/p+qT5t95uxNrF2ZW53j8GLGKUsXTEOGywhAG4MV+2ov/4+e7WN275A5/QswrEVtJI0D1ZEL8XXvASPO1Qi47hsvvw3K2xw++JdVjaLgQWWHIWR+ZNbRgfbSXBDAA6ULROYw+L0HgsakwBRjUYVKICXWuT29LZAKzhOaKG6b8K7fYHRPw0Y3OzwpDlCoQ7RbNTB9mEgNe6GwLNFwdhzd/jym3P9SOr1GiMeX+b0T9MgwT6iQfuqKz7QcjLovjRfl46mfpX8nk8TUEP2lyUvfFeekIW4Ryrncsp92o1/v3XZ+wYRAb2vpvFnwBOZ3W3hFRF4AJek3rit075bmOFyWI/cIRtjMqev0NKFWPqwZ57X77ytEnpnjwJ1aGBudllSGrOnMZZpgDmgnd1W4IORamzEqHMi91chsS/kDhvQl1J4w+ud9a46bT6eBqaLBZZYhWnl7SjUyLeBL2dC63pzfc1Ofj8ucN9yTWix25vzGH39G1cgFxKqnU6aGec09dZ56Kfjbu/1lniJJrNUxhYH8Sksa3dDImRxjc/wKxF0PgvxO3KVgmbKFFD2a4WUF/xxDFITA5nuSk+ZoKjOi5vvZMqB53ffn1whCt7GtH2rbsLplDAU7NqPJW3sZWMbLnx4lzfxnhaWCJ6o0hng6vHmrPokfcTUFS2p/FYL+B8WJC949lPoc86Tj/Xa7eGeLJ+eph7j71QcyaesOgtszA2vKORZZfZTZOQ/wq48xT3T+VN/Y8betx/Df4/wdEA+0M52dsMwAAAABJRU5ErkJggg==;" parent="yfoGOaeAojlxQzWnKSBf-2" vertex="1">
          <mxGeometry y="80" width="120" height="120" as="geometry" />
        </mxCell>
        <mxCell id="yfoGOaeAojlxQzWnKSBf-5" value="" style="group" parent="yfoGOaeAojlxQzWnKSBf-2" vertex="1" connectable="0">
          <mxGeometry x="656" y="620" width="976" height="450" as="geometry" />
        </mxCell>
        <mxCell id="yfoGOaeAojlxQzWnKSBf-6" value="" style="shape=note;whiteSpace=wrap;html=1;backgroundOutline=1;darkOpacity=0.05;" parent="yfoGOaeAojlxQzWnKSBf-5" vertex="1">
          <mxGeometry width="976" height="450" as="geometry" />
        </mxCell>
        <mxCell id="yfoGOaeAojlxQzWnKSBf-7" value="&lt;h1 style=&quot;margin-top: 0px;&quot;&gt;&lt;font style=&quot;font-size: 20px;&quot;&gt;application.yml&lt;/font&gt;&lt;/h1&gt;&lt;div&gt;&lt;font style=&quot;&quot;&gt;&lt;div style=&quot;font-size: 16px;&quot;&gt;spark:&lt;/div&gt;&lt;div style=&quot;font-size: 16px;&quot;&gt;&amp;nbsp; master: local&lt;/div&gt;&lt;div style=&quot;font-size: 16px;&quot;&gt;&amp;nbsp; executor:&lt;/div&gt;&lt;div style=&quot;font-size: 16px;&quot;&gt;&amp;nbsp; &amp;nbsp; instances: 2&lt;/div&gt;&lt;div style=&quot;font-size: 16px;&quot;&gt;&amp;nbsp; &amp;nbsp; memory: 2g&lt;/div&gt;&lt;div style=&quot;font-size: 16px;&quot;&gt;&amp;nbsp; submit.deployMode: cluster&lt;/div&gt;&lt;div style=&quot;font-size: 16px;&quot;&gt;&lt;br&gt;&lt;/div&gt;&lt;div style=&quot;font-size: 16px;&quot;&gt;spark-launcher:&lt;/div&gt;&lt;div style=&quot;font-size: 16px;&quot;&gt;&amp;nbsp; spark-home: ${SPARK_HOME}&lt;/div&gt;&lt;div style=&quot;font-size: 16px;&quot;&gt;&amp;nbsp; capture-jobs-logs: true&lt;/div&gt;&lt;div style=&quot;font-size: 16px;&quot;&gt;&amp;nbsp; persist-jobs: true&lt;/div&gt;&lt;div style=&quot;font-size: 16px;&quot;&gt;&amp;nbsp; jobs:&lt;/div&gt;&lt;div style=&quot;font-size: 16px;&quot;&gt;&amp;nbsp; &amp;nbsp; sales-report-job:&lt;/div&gt;&lt;div style=&quot;font-size: 16px;&quot;&gt;&amp;nbsp; &amp;nbsp; &amp;nbsp;&amp;nbsp;main-class-name: com.ksoot.spark.sales.SalesReportJob&lt;/div&gt;&lt;div style=&quot;font-size: 16px;&quot;&gt;&amp;nbsp; &amp;nbsp; &amp;nbsp; jar-file: local:///opt/spark/job-apps/spark-batch-sales-report-job.jar&lt;/div&gt;&lt;div style=&quot;font-size: 16px;&quot;&gt;&amp;nbsp; &amp;nbsp; &amp;nbsp;&amp;nbsp;spark-config:&lt;/div&gt;&lt;div style=&quot;&quot;&gt;&lt;span style=&quot;font-size: 16px;&quot;&gt;&amp;nbsp; &amp;nbsp; &amp;nbsp; &amp;nbsp; &amp;nbsp; spark.kubernetes.container.image: ${SALES_REPORT_JOB_IMAGE:spark-batch-sales-report-job:0.0.1}&lt;/span&gt;&lt;br&gt;&lt;/div&gt;&lt;/font&gt;&lt;/div&gt;" style="text;html=1;whiteSpace=wrap;overflow=hidden;rounded=0;" parent="yfoGOaeAojlxQzWnKSBf-5" vertex="1">
          <mxGeometry x="7.886868686868687" width="938.5373737373737" height="450" as="geometry" />
        </mxCell>
        <mxCell id="yfoGOaeAojlxQzWnKSBf-9" value="&lt;b&gt;&lt;font style=&quot;font-size: 19px;&quot;&gt;Message Listener&lt;/font&gt;&lt;/b&gt;" style="text;html=1;align=center;verticalAlign=middle;whiteSpace=wrap;rounded=0;" parent="yfoGOaeAojlxQzWnKSBf-2" vertex="1">
          <mxGeometry x="10" y="210" width="100" height="50" as="geometry" />
        </mxCell>
        <mxCell id="yfoGOaeAojlxQzWnKSBf-12" value="" style="shape=hexagon;perimeter=hexagonPerimeter2;whiteSpace=wrap;html=1;fixedSize=1;align=left;" parent="yfoGOaeAojlxQzWnKSBf-2" vertex="1">
          <mxGeometry x="680" y="80" width="940" height="520" as="geometry" />
        </mxCell>
        <mxCell id="yfoGOaeAojlxQzWnKSBf-13" value="&lt;font style=&quot;font-size: 19px;&quot;&gt;SalesReportJobLaunchRequest&lt;/font&gt;" style="swimlane;whiteSpace=wrap;html=1;" parent="yfoGOaeAojlxQzWnKSBf-2" vertex="1">
          <mxGeometry x="220" y="230" width="380" height="280" as="geometry" />
        </mxCell>
        <mxCell id="yfoGOaeAojlxQzWnKSBf-14" value="&lt;font style=&quot;font-size: 19px;&quot;&gt;&lt;span style=&quot;background-color: initial;&quot;&gt;{&lt;/span&gt;&lt;br&gt;&lt;span style=&quot;background-color: initial;&quot;&gt;&amp;nbsp; &quot;jobName&quot;: &quot;sales-report-job&quot;,&lt;/span&gt;&lt;br&gt;&lt;span style=&quot;background-color: initial;&quot;&gt;&amp;nbsp; &quot;correlationId&quot;: &quot;71643ba2&quot;,&lt;/span&gt;&lt;br&gt;&lt;span style=&quot;background-color: initial;&quot;&gt;&amp;nbsp; &quot;sparkConfigs&quot;: {&lt;/span&gt;&lt;br&gt;&lt;span style=&quot;background-color: initial;&quot;&gt;&amp;nbsp; &amp;nbsp; &quot;spark.executor.instances&quot;: 3&lt;/span&gt;&lt;br&gt;&lt;span style=&quot;background-color: initial;&quot;&gt;&amp;nbsp; },&lt;/span&gt;&lt;br&gt;&lt;span style=&quot;background-color: initial;&quot;&gt;&amp;nbsp; &quot;month&quot;: &quot;2024-11&quot;&lt;/span&gt;&lt;br&gt;&lt;font style=&quot;&quot;&gt;}&lt;/font&gt;&lt;/font&gt;" style="text;html=1;align=left;verticalAlign=middle;whiteSpace=wrap;rounded=0;" parent="yfoGOaeAojlxQzWnKSBf-13" vertex="1">
          <mxGeometry x="20" y="30" width="330" height="220" as="geometry" />
        </mxCell>
        <mxCell id="yfoGOaeAojlxQzWnKSBf-17" value="" style="shape=flexArrow;endArrow=classic;html=1;rounded=0;width=15;strokeWidth=4;entryX=0.004;entryY=0.318;entryDx=0;entryDy=0;entryPerimeter=0;" parent="yfoGOaeAojlxQzWnKSBf-2" target="yfoGOaeAojlxQzWnKSBf-66" edge="1">
          <mxGeometry width="50" height="50" relative="1" as="geometry">
            <mxPoint x="1620" y="308.99" as="sourcePoint" />
            <mxPoint x="1850" y="309" as="targetPoint" />
          </mxGeometry>
        </mxCell>
        <mxCell id="yfoGOaeAojlxQzWnKSBf-18" value="" style="shape=flexArrow;endArrow=classic;html=1;rounded=0;exitX=1;exitY=0.25;exitDx=0;exitDy=0;" parent="yfoGOaeAojlxQzWnKSBf-2" source="yfoGOaeAojlxQzWnKSBf-3" edge="1">
          <mxGeometry width="50" height="50" relative="1" as="geometry">
            <mxPoint x="917" y="220" as="sourcePoint" />
            <mxPoint x="220" y="343.0769230769233" as="targetPoint" />
          </mxGeometry>
        </mxCell>
        <mxCell id="yfoGOaeAojlxQzWnKSBf-19" value="&lt;b&gt;&lt;font style=&quot;font-size: 15px;&quot;&gt;Start Job&lt;/font&gt;&lt;/b&gt;" style="text;html=1;align=center;verticalAlign=middle;whiteSpace=wrap;rounded=0;" parent="yfoGOaeAojlxQzWnKSBf-2" vertex="1">
          <mxGeometry x="110" y="320" width="80" height="30" as="geometry" />
        </mxCell>
        <mxCell id="yfoGOaeAojlxQzWnKSBf-16" value="" style="curved=1;endArrow=classic;html=1;rounded=0;strokeWidth=3;dashed=1;exitX=0.436;exitY=0.429;exitDx=0;exitDy=0;exitPerimeter=0;entryX=0.028;entryY=0.644;entryDx=0;entryDy=0;entryPerimeter=0;" parent="yfoGOaeAojlxQzWnKSBf-2" target="yfoGOaeAojlxQzWnKSBf-7" edge="1">
          <mxGeometry width="50" height="50" relative="1" as="geometry">
            <mxPoint x="307" y="320" as="sourcePoint" />
            <mxPoint x="600" y="850" as="targetPoint" />
            <Array as="points">
              <mxPoint x="340" y="430" />
              <mxPoint x="390" y="480" />
              <mxPoint x="490" y="550" />
              <mxPoint x="580" y="590" />
              <mxPoint x="600" y="720" />
              <mxPoint x="580" y="830" />
            </Array>
          </mxGeometry>
        </mxCell>
        <mxCell id="yfoGOaeAojlxQzWnKSBf-20" value="&lt;div&gt;&lt;span style=&quot;font-size: 26px;&quot;&gt;./bin/spark-submit --verbose --name sales-report-job&amp;nbsp;&lt;/span&gt;&lt;/div&gt;&lt;div&gt;&lt;span style=&quot;font-size: 26px;&quot;&gt;--class com.ksoot.spark.sales.SalesReportJob&amp;nbsp;&lt;/span&gt;&lt;/div&gt;&lt;div&gt;&lt;span style=&quot;font-size: 26px;&quot;&gt;&amp;nbsp;--conf spark.master=k8s://https://kubernetes.default.svc&amp;nbsp;&lt;/span&gt;&lt;/div&gt;&lt;div&gt;&lt;span style=&quot;font-size: 26px;&quot;&gt;--conf spark.submit.deployMode=cluster&amp;nbsp;&lt;/span&gt;&lt;/div&gt;&lt;div&gt;&lt;span style=&quot;font-size: 26px;&quot;&gt;--conf spark.executor.instances=3 --conf spark.executor.memory=2g&lt;/span&gt;&lt;/div&gt;&lt;div&gt;&lt;span style=&quot;font-size: 26px;&quot;&gt;--conf spark.default.parallelism=32&lt;/span&gt;&lt;br&gt;&lt;/div&gt;&lt;div&gt;&lt;span style=&quot;font-size: 26px;&quot;&gt;--conf spark.kubernetes.namespace=ksoot&amp;nbsp;&lt;/span&gt;&lt;br&gt;&lt;/div&gt;&lt;div&gt;&lt;span style=&quot;font-size: 26px;&quot;&gt;&amp;nbsp;--conf spark.driver.extraJavaOptions=&quot;&lt;/span&gt;&lt;span style=&quot;font-size: 26px; background-color: initial;&quot;&gt;-DSTATEMENT_MONTH=2024-11&amp;nbsp;&lt;/span&gt;&lt;/div&gt;&lt;div&gt;&lt;span style=&quot;font-size: 26px; background-color: initial;&quot;&gt;-DCORRELATION_ID=71643ba2&amp;nbsp;&lt;/span&gt;&lt;/div&gt;&lt;div&gt;&lt;span style=&quot;font-size: 26px;&quot;&gt;-DPERSIST_JOB=true&amp;nbsp;&lt;/span&gt;&lt;/div&gt;&lt;div&gt;&lt;span style=&quot;background-color: initial; font-size: 26px;&quot;&gt;-DKAFKA_BOOTSTRAP_SERVERS=kafka:9092&lt;/span&gt;&lt;/div&gt;&lt;div&gt;&lt;span style=&quot;background-color: initial; font-size: 26px;&quot;&gt;-DMONGODB_URL=mongodb://mongo:27017&lt;/span&gt;&lt;span style=&quot;font-size: 26px; background-color: initial;&quot;&gt;&quot;&amp;nbsp; &amp;nbsp; &amp;nbsp;&lt;/span&gt;&lt;/div&gt;&lt;div&gt;&lt;span style=&quot;font-size: 26px;&quot;&gt;&amp;nbsp;.m2/repository/com/ksoot/spark/spark-batch-sales-report-job/0.0.1-SNAPSHOT/spark-batch-sales-report-job-0.0.1-SNAPSHOT.jar&lt;/span&gt;&lt;/div&gt;" style="text;html=1;align=left;verticalAlign=middle;whiteSpace=wrap;rounded=0;" parent="1" vertex="1">
          <mxGeometry x="-10" y="500" width="880" height="520" as="geometry" />
        </mxCell>
        <mxCell id="yfoGOaeAojlxQzWnKSBf-23" value="" style="shape=flexArrow;endArrow=classic;html=1;rounded=0;exitX=1;exitY=0.75;exitDx=0;exitDy=0;" parent="1" source="yfoGOaeAojlxQzWnKSBf-4" edge="1">
          <mxGeometry width="50" height="50" relative="1" as="geometry">
            <mxPoint x="-599" y="724" as="sourcePoint" />
            <mxPoint x="-499" y="704" as="targetPoint" />
          </mxGeometry>
        </mxCell>
        <mxCell id="yfoGOaeAojlxQzWnKSBf-24" value="" style="shape=flexArrow;endArrow=classic;html=1;rounded=0;entryX=0.01;entryY=0.565;entryDx=0;entryDy=0;entryPerimeter=0;width=15;strokeWidth=4;" parent="1" edge="1">
          <mxGeometry width="50" height="50" relative="1" as="geometry">
            <mxPoint x="-121" y="760" as="sourcePoint" />
            <mxPoint x="-41.59999999999991" y="759.8999999999996" as="targetPoint" />
          </mxGeometry>
        </mxCell>
        <mxCell id="yfoGOaeAojlxQzWnKSBf-25" value="" style="curved=1;endArrow=classic;html=1;rounded=0;exitX=0.818;exitY=0.182;exitDx=0;exitDy=0;exitPerimeter=0;strokeWidth=3;dashed=1;" parent="1" edge="1">
          <mxGeometry width="50" height="50" relative="1" as="geometry">
            <mxPoint x="-245" y="761" as="sourcePoint" />
            <mxPoint x="290" y="800" as="targetPoint" />
            <Array as="points">
              <mxPoint x="-205" y="721" />
              <mxPoint x="-155" y="681" />
              <mxPoint x="-80" y="638" />
              <mxPoint x="180" y="660" />
            </Array>
          </mxGeometry>
        </mxCell>
        <mxCell id="yfoGOaeAojlxQzWnKSBf-26" value="" style="curved=1;endArrow=classic;html=1;rounded=0;strokeWidth=3;dashed=1;" parent="1" edge="1">
          <mxGeometry width="50" height="50" relative="1" as="geometry">
            <mxPoint x="-235" y="788" as="sourcePoint" />
            <mxPoint y="670" as="targetPoint" />
            <Array as="points">
              <mxPoint x="-195" y="748" />
              <mxPoint x="-110" y="700" />
            </Array>
          </mxGeometry>
        </mxCell>
        <mxCell id="yfoGOaeAojlxQzWnKSBf-27" value="" style="curved=1;endArrow=classic;html=1;rounded=0;strokeWidth=3;dashed=1;exitX=0.545;exitY=0.727;exitDx=0;exitDy=0;exitPerimeter=0;entryX=0.875;entryY=0.558;entryDx=0;entryDy=0;entryPerimeter=0;" parent="1" source="yfoGOaeAojlxQzWnKSBf-14" target="yfoGOaeAojlxQzWnKSBf-20" edge="1">
          <mxGeometry width="50" height="50" relative="1" as="geometry">
            <mxPoint x="-242" y="849" as="sourcePoint" />
            <mxPoint x="-7" y="731" as="targetPoint" />
            <Array as="points">
              <mxPoint x="-200" y="860" />
              <mxPoint x="230" y="850" />
              <mxPoint x="760" y="840" />
            </Array>
          </mxGeometry>
        </mxCell>
        <mxCell id="yfoGOaeAojlxQzWnKSBf-28" value="" style="curved=1;endArrow=classic;html=1;rounded=0;strokeWidth=3;dashed=1;" parent="1" edge="1">
          <mxGeometry width="50" height="50" relative="1" as="geometry">
            <mxPoint x="160" y="1200" as="sourcePoint" />
            <mxPoint x="410" y="660" as="targetPoint" />
            <Array as="points">
              <mxPoint x="320" y="1130" />
              <mxPoint x="330" y="930" />
              <mxPoint x="330" y="770" />
            </Array>
          </mxGeometry>
        </mxCell>
        <mxCell id="yfoGOaeAojlxQzWnKSBf-32" value="&lt;font style=&quot;font-size: 26px;&quot;&gt;Kubernetes Cluster - namespace ksoot&lt;/font&gt;" style="swimlane;whiteSpace=wrap;html=1;startSize=80;" parent="1" vertex="1">
          <mxGeometry x="-740" y="320" width="2830" height="1230" as="geometry" />
        </mxCell>
        <mxCell id="yfoGOaeAojlxQzWnKSBf-72" value="&lt;b&gt;&lt;font&gt;Spark Driver&lt;/font&gt;&lt;/b&gt;" style="text;html=1;align=center;verticalAlign=middle;whiteSpace=wrap;rounded=0;fontSize=23;" parent="yfoGOaeAojlxQzWnKSBf-32" vertex="1">
          <mxGeometry x="2500" y="265" width="180" height="30" as="geometry" />
        </mxCell>
        <mxCell id="yfoGOaeAojlxQzWnKSBf-77" value="&lt;h1 style=&quot;text-align: left; margin-top: 0px;&quot;&gt;sales-report-job-5fa10793f9f1b559-exec-2&amp;nbsp;&lt;/h1&gt;" style="rounded=1;whiteSpace=wrap;html=1;" parent="yfoGOaeAojlxQzWnKSBf-32" vertex="1">
          <mxGeometry x="2180" y="970" width="300" height="83" as="geometry" />
        </mxCell>
        <mxCell id="yfoGOaeAojlxQzWnKSBf-78" value="&lt;h1 style=&quot;text-align: left; margin-top: 0px;&quot;&gt;sales-report-job-5fa10793f9f1b559-exec-3&amp;nbsp;&lt;/h1&gt;" style="rounded=1;whiteSpace=wrap;html=1;" parent="yfoGOaeAojlxQzWnKSBf-32" vertex="1">
          <mxGeometry x="2520" y="970" width="300" height="83" as="geometry" />
        </mxCell>
        <mxCell id="yfoGOaeAojlxQzWnKSBf-3" value="" style="shape=image;verticalLabelPosition=bottom;labelBackgroundColor=default;verticalAlign=top;aspect=fixed;imageAspect=0;image=data:image/png,iVBORw0KGgoAAAANSUhEUgAAAGQAAABkCAYAAABw4pVUAAAAAXNSR0IArs4c6QAAAERlWElmTU0AKgAAAAgAAYdpAAQAAAABAAAAGgAAAAAAA6ABAAMAAAABAAEAAKACAAQAAAABAAAAZKADAAQAAAABAAAAZAAAAAAvu95BAAAL0ElEQVR4Ae2ba8wdRRnHa6lQWqlAoUSplhIMEGkEelETYvASoomVVmuJFfCLaFVI0IJGjPWLqR8QEDFB1A9ARAzSWCgJtiRgoApWa6CoxAttrRKJpdRoL1AB/f/edNInD7O7M7t7znvOefdJ/t25PLf5z9nZ2Xm3kyZ10jHQMdAx0DHQMTDaDCzX8DYLB4T/ZQIbbJcJnbTAwCr5yJ2EIv0rW8hnQruYqdHXuSuKJgRfxw8yo5MHOTnl9kFhaos54mtxi/5adzXoE7LQjXiN6q/JxDecjwWuPlDVQZ+Q+Y6tLa6eUvU23meKj05HDBwh7BPs82BODWZOcT7wOaWGnwlvcq4jclcDRrC1E4vvThIYOEo6PHRvF/zd8bME+yKVDeqwE/KC6uuFS4VpQieOgbeq/gNhj2CJs2Ue6HUFW+vLlon5feHMus5HyW6eBnOX8LJgSfJl+rlz6gq2KTF+LL2z6gYZZru3KPm1wiuCJz/Un1PfD4WPCScITQUf+MLnbiHE8Vcm7m7hNGHkhZ3T1cJ+wRNB/SXhp8IS4UihV4JvYqwTiBnLhRyvEsh5JGWeRvVrITZ4HuDfEuYK/ZZTFfBGwW8iQp4cTJL7SMmnNZqDQhhkuP5Xbd8V3iiMt5ysBG4RyCnkF64vqu0yYeDlncpwlUCysV0Kt/v1QhiYvT6q9rcJgyZnK6HHBJtrKF+n9tgSxtg/JXxROF/ou7AGrxVCouH6hNquEVgGXiew1w994cqvjUmcLAyqkBs5kmvIO1zvVRtjY4yMlTGHvnDdoLbpQt/kZkUKwYuuuyM6T6ttft+ybB6IXMnZjzE2Nq9zZ/PwaR5IsmpP75OjvkmYlRZioLT4+8mDQmxMVW0X9HokHH2z9ttE/qD6RiH2MAx6vHC9VhhWYYnmBTaMx1/ZOj8gwIXt26p67Jmj5nbkErmxAXmxO++Qa168eLj7yblVbT1NSv77IYzhNiGMn0ngzlkpnCggcOFfdunvifAge0YICXEtWieZHBK5VhiFydAwxoSxMKbLhZPGWl79D5xYjv6p+rGvVmvessYF2q/6nOZuR87DbI1or2Anha1/q8IWz39s8NVWI4yWs9Uajp2Qg6qf3uYQOV+yAXaqPq3NACPm62iNZ7tgObuvrTG+xzkmyEfbcj7CfpZHeHt/0/HyEGPrZmf6EdXZ/nZSzcBDUrHcsS1utP1nN2Ed8kI4TG/aSndchbM6tseWwyvqZsQ21x8RcDLbSR4DcGYnBE5rnXNd7BztUT28AKnYSSIDcAZ3dlJWFNlOLupQ+xzXd7/qu1xbV61mAM7gzorn1vYVlv0xCTN8g1A2iYXOhqyDB28bGxe4gjN7d1AuvEPUVygz1PN3wTv7idqmFlrldXxE6vyCwNI800nY+mecz5U6b80ciH5O4JCwSFiiOebwPrap7QNFRiXtcARX3t/f1HZMiV1p1yL1+vWPAA8LHEs3EX6FzwkhYcjI2RL+w9gGH1XXLbJ5g+CFuBwFFdnzw8wRuIEj7w8uF+Y4iunOU2PsTmFPPTdmkNj2Xun5hGlLFW+bWv+NAviJP0pt+4QiHzkTAidw433hAy5bkTfJy+8EH+SmBt6/HfFHW6r4XHLqn4kEYV1/VvB+cpcsOPE+4A4OW5Xj5O1Pgg22rEGEHc4XfmlLFZsH5SLha5L1gtX/ZZGy0yvzW+QCTmwsOIO7nsjT8hqC8YeYuu8lfNkR/PgrfSni7cpsOBK3+v8uUbZ6lHNllgzgJviBs54IDyobiNuwrqyWYUjYX+lLEW9XZZOqn6pXFu8pdQY/cAZ3SZLzTsHuwO7Nf5sUIa60JN481nphSd+wdFlu4Gx+auI5E+KdPpkaxOnxcLPLUvglBbVzVGj9ARic9+nqufHcFaaRMyF+y8bDqo58SEb2TntcdRCEPnSGWf7okvfcue7D1ZwJmXPYbKzEG2cd8UvSOjm5xzka9gnx7y1vduNrpbpTXsLywjX2xlsV6PVSeNH5YYkC1jc66JaJ1adcJan6qXpl8dhqWz87ypTr9v3LBZlRw9FFzscO1VmiAGU7CHTLxOpSLpN+bnvJgx+Tze/5suRsX86S5T9qOGAdJZb9UrRediFxyla8ru3LKTMZ/g9rTbbsKbE5F7My3VbaKh+Uo0AeV38eVBUH/T3Ox/uMEWXrH92yGFY3t7zSxPVF78v3p9TJ2/phCW5dmi5Z/jDREx6bsLLDRjvgnPJmMZMz0XWI7MuS5Y8b+Jt7jlzolO9XnQ+0g1CmzYq3sX11ypz04tPGreOnysZz47mrsk/q/4W07C9xQZLVYaUdzj720KbNxsCmSKxeWfk/ckDuLFNld0aI432F9pwrpxrWzyM5xqm6P3JBlqQaSu9sZ2uTrSpjGxNvF9Op09aG36UKbP3ckZpIzi7rSef0dFcvqzZZetrabZXl13bfGc7hVlcvrOZMCOuvleTjABk1mZAmtjbffpY9N1t6EZwjZI6Sw634+8QgHBRau2CfesU2dtjo7RPTqVRrw+9TihL8kD/c9UT+Iq82EH+MqZLLpRBsuPL35iqxA8KGL0a8WJ+U25Kmfv0fqP6ck1jOknWcHDPbQTjueFeolFwXu757XD1WXecah+k5AidwE4QJhrtWhSWD4wb/67kpIQrHCNbu7Qk26FgbfHix/ZSbysVy0MZ3WXDic4O72LJbK2ceUBwn+yAsPXMTPHo7++spMkfH23ndqn6vX1bn/cT/cKx/f5xe5gtO4MbaU8aHf9irKU8WSX2P4J0/rLbUB9U2Y085VarsqvpT46DX5ndZ+IMbOPK8wSUvjbVkhqxidwafR07N8MhnmPgBOZ9kVtlV9WekOKa6Qv8+K3gSmficvMec6R84in1KCg/HBKWcK2uqT+4GteVsBHLijaIuXMGZ5/HjdQb7FeeIo5NO6jHgj52+XOSm7Nf+V2fEbXuia+uq1QzAmV/yPLfVXqTBEfJuwd5u/i9vSY4muFJr/6UNHq8Q7IS8rPp8OjpJYoCT6pcEy+FnkywLlKaonVNe63CT6rwndFLNwM+lYrnj/A9OG4n/0ysBljfyODGML9Iw7WRQvqCtod/nnO9U3X+F0lasUfBztAaxXbATsrbNgZ0mZy+4AKvbDDBivr7muII7OGxVrpc3O+Oc/cxpNcJoOJutYewVLFdf78XQjpVTfxp6Z0Ggk9TO30GuFY4o0BnGZsbCmFYKJxQMAE7sZDyjOq8QPRESscFeUf28Q5F4AaL/QcFu9W5VfRQmhTHcJoTx8ynRRuEyIUwOXMBJ0OF6idAzIamtgg3IUfMDgp0E20/5LuFIYViF0+C7BT+uUA+TAxehjeujQs9fEd7tgtoEysqbZDdLGDaZqYQfEsrGFuvjJXpRvwbr18lYQv7YBZ1twoJ+JdlCnIXysV3w44uNzevc3EL8ZBfTpbkhkugTartGOFXgQXav4BPlw+OrhbKDTXWPq7A0f0nwH5gzFsbE2BgjY2XMfozjtkSfr2SuEniwnSl4YWDXCT5h6r8Sir5KVNe4yTmKvFmI5fxNtTMmL4wdDr4gvMN3DmKdZLkz/CB5GN4inCyMt8xWAt8TyMnnSe6fFEZKztJouCv8YKnvF24UWAb6LbxBf0c4IMRyI2dyH0nhdl8l7BNig2frzDdZS4VebpPZxn5Y4HnAbiiWCzmSa2yJUvNoCb9KPgAoIgOC2MncIawQwouXirUFH/jiz6nPC7FJoI2cyI0cJ5ywFLCFLpuYQNLiBuxgmxKDXEZ2ecrhj10KD9SyX+6aHIdOF9uiO4KYbCzOcDZdVQywtvNrvl3wz5kNaqsrG2VoJ4Tj8PXCpcI0oZMEBs6VjiVxV4JNkQq21he+O8lkgN3NXsESeUqmD9TnCtYHd94UOgZRBvn4gofwVkfafFdPqXqbx2XE9nogZZAnBMK2ONY8ua47WvU23mfUqGuMM/AJNdvlpo0yPjupycBM2RUdadSZHHwdXzOXzuwQA5/XtQ75MZsrO1bbYWCZ3HDIV+du4eDyMQEfnXQMdAx0DHQMdAyMLAP/ByOu5R6pMXAMAAAAAElFTkSuQmCC;" parent="yfoGOaeAojlxQzWnKSBf-32" vertex="1">
          <mxGeometry x="20" y="360" width="120" height="120" as="geometry" />
        </mxCell>
        <mxCell id="yfoGOaeAojlxQzWnKSBf-10" value="&lt;b&gt;&lt;font style=&quot;font-size: 19px;&quot;&gt;REST&lt;/font&gt;&lt;/b&gt;" style="text;html=1;align=center;verticalAlign=middle;whiteSpace=wrap;rounded=0;" parent="yfoGOaeAojlxQzWnKSBf-32" vertex="1">
          <mxGeometry x="30" y="480" width="100" height="50" as="geometry" />
        </mxCell>
        <mxCell id="yfoGOaeAojlxQzWnKSBf-8" value="" style="aspect=fixed;sketch=0;html=1;dashed=0;whitespace=wrap;verticalLabelPosition=bottom;verticalAlign=top;fillColor=#2875E2;strokeColor=#ffffff;points=[[0.005,0.63,0],[0.1,0.2,0],[0.9,0.2,0],[0.5,0,0],[0.995,0.63,0],[0.72,0.99,0],[0.5,1,0],[0.28,0.99,0]];shape=mxgraph.kubernetes.icon2;prIcon=cronjob" parent="yfoGOaeAojlxQzWnKSBf-32" vertex="1">
          <mxGeometry x="20" y="520" width="125" height="120" as="geometry" />
        </mxCell>
        <mxCell id="yfoGOaeAojlxQzWnKSBf-11" value="&lt;b&gt;&lt;font style=&quot;font-size: 19px;&quot;&gt;Scheduler&lt;/font&gt;&lt;/b&gt;" style="text;html=1;align=center;verticalAlign=middle;whiteSpace=wrap;rounded=0;" parent="yfoGOaeAojlxQzWnKSBf-32" vertex="1">
          <mxGeometry x="40" y="630" width="100" height="50" as="geometry" />
        </mxCell>
        <mxCell id="yfoGOaeAojlxQzWnKSBf-82" value="" style="curved=1;endArrow=classic;html=1;rounded=0;strokeWidth=3;dashed=1;entryX=0.407;entryY=0.077;entryDx=0;entryDy=0;entryPerimeter=0;" parent="yfoGOaeAojlxQzWnKSBf-32" edge="1">
          <mxGeometry width="50" height="50" relative="1" as="geometry">
            <mxPoint x="2150" y="-220" as="sourcePoint" />
            <mxPoint x="2443.03125" y="328.2600000000001" as="targetPoint" />
            <Array as="points">
              <mxPoint x="2410" y="139.08999999999997" />
              <mxPoint x="2460" y="220" />
            </Array>
          </mxGeometry>
        </mxCell>
        <mxCell id="yfoGOaeAojlxQzWnKSBf-86" value="&lt;span style=&quot;font-size: 16px; text-align: left;&quot;&gt;&lt;b&gt;https://kubernetes.default.svc&lt;/b&gt;&lt;/span&gt;" style="text;html=1;align=center;verticalAlign=middle;whiteSpace=wrap;rounded=0;" parent="yfoGOaeAojlxQzWnKSBf-32" vertex="1">
          <mxGeometry x="1680" y="420" width="270" height="40" as="geometry" />
        </mxCell>
        <mxCell id="0xrCPZ1beF0Nvzpc6FTi-6" value="&lt;b&gt;&lt;font&gt;Spark Executor - 1&lt;/font&gt;&lt;/b&gt;" style="text;html=1;align=center;verticalAlign=middle;whiteSpace=wrap;rounded=0;fontSize=23;" parent="yfoGOaeAojlxQzWnKSBf-32" vertex="1">
          <mxGeometry x="1760" y="760" width="221" height="30" as="geometry" />
        </mxCell>
        <mxCell id="0xrCPZ1beF0Nvzpc6FTi-7" value="&lt;b&gt;&lt;font&gt;Spark Executor - 2&lt;/font&gt;&lt;/b&gt;" style="text;html=1;align=center;verticalAlign=middle;whiteSpace=wrap;rounded=0;fontSize=23;" parent="yfoGOaeAojlxQzWnKSBf-32" vertex="1">
          <mxGeometry x="2210" y="750" width="221" height="30" as="geometry" />
        </mxCell>
        <mxCell id="0xrCPZ1beF0Nvzpc6FTi-8" value="&lt;b&gt;&lt;font&gt;Spark Executor - 3&lt;/font&gt;&lt;/b&gt;" style="text;html=1;align=center;verticalAlign=middle;whiteSpace=wrap;rounded=0;fontSize=23;" parent="yfoGOaeAojlxQzWnKSBf-32" vertex="1">
          <mxGeometry x="2580" y="740" width="221" height="30" as="geometry" />
        </mxCell>
        <mxCell id="yfoGOaeAojlxQzWnKSBf-36" value="&lt;h1 style=&quot;margin-top: 0px;&quot;&gt;% docker images&lt;/h1&gt;&lt;h1 style=&quot;margin-top: 0px;&quot;&gt;REPOSITORY&amp;nbsp; &amp;nbsp; &amp;nbsp; &amp;nbsp; &amp;nbsp; &amp;nbsp; &amp;nbsp; &amp;nbsp; &amp;nbsp; &amp;nbsp; &amp;nbsp; &amp;nbsp; &amp;nbsp; &amp;nbsp;TAG&amp;nbsp; &amp;nbsp; &amp;nbsp; &amp;nbsp;IMAGE ID&amp;nbsp; &amp;nbsp; &amp;nbsp; &amp;nbsp;CREATED&amp;nbsp; &amp;nbsp; &amp;nbsp; &amp;nbsp; &amp;nbsp;SIZE&lt;/h1&gt;&lt;h1 style=&quot;margin-top: 0px;&quot;&gt;spark-stream-logs-analysis-job&amp;nbsp; &amp;nbsp; &amp;nbsp; &amp;nbsp;0.0.1&amp;nbsp; &amp;nbsp; &amp;nbsp;d1f8aa59ff5c&amp;nbsp; &amp;nbsp;4 days ago&amp;nbsp; &amp;nbsp; &amp;nbsp; 1.1GB&lt;/h1&gt;&lt;h1 style=&quot;margin-top: 0px;&quot;&gt;spark-batch-sales-report-job&amp;nbsp; &amp;nbsp;0.0.1&amp;nbsp; &amp;nbsp; &amp;nbsp;c95e2110ccb9&amp;nbsp; &amp;nbsp;4 days ago&amp;nbsp; &amp;nbsp; &amp;nbsp; 1.11GB&lt;/h1&gt;" style="text;html=1;whiteSpace=wrap;overflow=hidden;rounded=0;" parent="1" vertex="1">
          <mxGeometry x="-30" y="64" width="950" height="198" as="geometry" />
        </mxCell>
        <mxCell id="yfoGOaeAojlxQzWnKSBf-42" value="" style="group" parent="1" vertex="1" connectable="0">
          <mxGeometry x="-500" y="1600" width="530" height="170" as="geometry" />
        </mxCell>
        <mxCell id="yfoGOaeAojlxQzWnKSBf-38" value="" style="shape=note;whiteSpace=wrap;html=1;backgroundOutline=1;darkOpacity=0.05;" parent="yfoGOaeAojlxQzWnKSBf-42" vertex="1">
          <mxGeometry width="530" height="170" as="geometry" />
        </mxCell>
        <mxCell id="yfoGOaeAojlxQzWnKSBf-39" value="&lt;h1 style=&quot;margin-top: 0px;&quot;&gt;&lt;font style=&quot;&quot;&gt;&lt;span style=&quot;background-color: initial;&quot;&gt;&lt;font style=&quot;font-size: 21px;&quot;&gt;sales-report-job&lt;/font&gt;&lt;/span&gt;&lt;span style=&quot;font-size: 16px; background-color: initial; font-weight: normal;&quot;&gt; -&amp;nbsp;&lt;/span&gt;&lt;span style=&quot;font-size: 20px;&quot;&gt;Dockerfile&lt;/span&gt;&lt;/font&gt;&lt;/h1&gt;&lt;div&gt;&lt;font style=&quot;&quot;&gt;&lt;div style=&quot;&quot;&gt;&lt;span style=&quot;font-size: 16px;&quot;&gt;ENV SPARK_JOB_APPS_DIR=/opt/spark/job-apps&lt;/span&gt;&lt;br&gt;&lt;/div&gt;&lt;div style=&quot;font-size: 16px;&quot;&gt;&lt;br&gt;&lt;/div&gt;&lt;div style=&quot;&quot;&gt;&lt;span style=&quot;font-size: 16px;&quot;&gt;ADD target/spark-batch-sales-report-job-*.jar $SPARK_JOB_APPS_DIR/spark-batch-sales-report-job.jar&lt;/span&gt;&lt;br&gt;&lt;/div&gt;&lt;/font&gt;&lt;/div&gt;" style="text;html=1;whiteSpace=wrap;overflow=hidden;rounded=0;" parent="yfoGOaeAojlxQzWnKSBf-42" vertex="1">
          <mxGeometry x="4.37" width="515.63" height="160" as="geometry" />
        </mxCell>
        <mxCell id="yfoGOaeAojlxQzWnKSBf-47" value="" style="group" parent="1" vertex="1" connectable="0">
          <mxGeometry x="-710" y="999" width="530" height="331" as="geometry" />
        </mxCell>
        <mxCell id="yfoGOaeAojlxQzWnKSBf-48" value="" style="shape=note;whiteSpace=wrap;html=1;backgroundOutline=1;darkOpacity=0.05;" parent="yfoGOaeAojlxQzWnKSBf-47" vertex="1">
          <mxGeometry width="530" height="331" as="geometry" />
        </mxCell>
        <mxCell id="yfoGOaeAojlxQzWnKSBf-49" value="&lt;h1 style=&quot;margin-top: 0px;&quot;&gt;&lt;font style=&quot;&quot;&gt;&lt;span style=&quot;background-color: initial;&quot;&gt;&lt;font style=&quot;font-size: 21px;&quot;&gt;spark-job-service&lt;/font&gt;&lt;/span&gt;&lt;span style=&quot;font-size: 16px; background-color: initial; font-weight: normal;&quot;&gt; -&amp;nbsp;&lt;/span&gt;&lt;span style=&quot;font-size: 20px;&quot;&gt;deployment.yml&lt;/span&gt;&lt;/font&gt;&lt;/h1&gt;&lt;div&gt;&lt;font style=&quot;font-size: 14px;&quot;&gt;&lt;div style=&quot;&quot;&gt;&lt;div style=&quot;&quot;&gt;args:&lt;/div&gt;&lt;div style=&quot;&quot;&gt;&amp;nbsp; - &quot;--spark.default.parallelism=32&quot;&lt;/div&gt;&lt;div style=&quot;&quot;&gt;&amp;nbsp; - &quot;--spark-launcher.env.KAFKA_BOOTSTRAP_SERVERS=kafka:9092&quot;&lt;/div&gt;&lt;div style=&quot;&quot;&gt;&amp;nbsp; - &quot;--spark-launcher.jobs.sales-report-job.env.MONGODB_URL=mongodb://mongo:27017&quot;&lt;/div&gt;&lt;div style=&quot;&quot;&gt;env:&lt;/div&gt;&lt;div style=&quot;&quot;&gt;&amp;nbsp; - name: SPARK_MASTER&lt;/div&gt;&lt;div style=&quot;&quot;&gt;&amp;nbsp; &amp;nbsp; value: k8s://https://kubernetes.default.svc&lt;/div&gt;&lt;div style=&quot;&quot;&gt;&amp;nbsp; - name: SPARK_KUBERNETES_NAMESPACE&lt;/div&gt;&lt;div style=&quot;&quot;&gt;&amp;nbsp; &amp;nbsp; value: ksoot&lt;/div&gt;&lt;div style=&quot;&quot;&gt;&amp;nbsp; - name: SPARK_KUBERNETES_AUTHENTICATE_DRIVER_SERVICE_ACCOUNT_NAME&lt;/div&gt;&lt;div style=&quot;&quot;&gt;&amp;nbsp; &amp;nbsp; value: spark&lt;/div&gt;&lt;div style=&quot;&quot;&gt;&amp;nbsp; - name: SPARK_KUBERNETES_DRIVER_ENV_SPARK_USER&lt;/div&gt;&lt;div style=&quot;&quot;&gt;&amp;nbsp; &amp;nbsp; value: spark&lt;/div&gt;&lt;/div&gt;&lt;/font&gt;&lt;/div&gt;" style="text;html=1;whiteSpace=wrap;overflow=hidden;rounded=0;" parent="yfoGOaeAojlxQzWnKSBf-47" vertex="1">
          <mxGeometry x="4.37" width="515.63" height="311.52941176470586" as="geometry" />
        </mxCell>
        <mxCell id="yfoGOaeAojlxQzWnKSBf-31" value="" style="curved=1;endArrow=classic;html=1;rounded=0;strokeWidth=3;dashed=1;entryX=0;entryY=0.75;entryDx=0;entryDy=0;" parent="1" target="yfoGOaeAojlxQzWnKSBf-36" edge="1">
          <mxGeometry width="50" height="50" relative="1" as="geometry">
            <mxPoint x="-17" y="1405" as="sourcePoint" />
            <mxPoint x="35.285714285714675" y="256.99999999999955" as="targetPoint" />
            <Array as="points">
              <mxPoint x="-269" y="1295" />
              <mxPoint x="-119" y="835" />
              <mxPoint x="-89" y="685" />
              <mxPoint x="-159" y="305" />
            </Array>
          </mxGeometry>
        </mxCell>
        <mxCell id="yfoGOaeAojlxQzWnKSBf-30" value="" style="curved=1;endArrow=classic;html=1;rounded=0;strokeWidth=3;dashed=1;exitX=0.67;exitY=0.375;exitDx=0;exitDy=0;exitPerimeter=0;" parent="1" source="yfoGOaeAojlxQzWnKSBf-39" edge="1">
          <mxGeometry width="50" height="50" relative="1" as="geometry">
            <mxPoint x="-330" y="1430" as="sourcePoint" />
            <mxPoint x="170" y="1380" as="targetPoint" />
            <Array as="points">
              <mxPoint x="80" y="1520" />
              <mxPoint x="140" y="1430" />
            </Array>
          </mxGeometry>
        </mxCell>
        <mxCell id="yfoGOaeAojlxQzWnKSBf-29" value="" style="curved=1;endArrow=classic;html=1;rounded=0;strokeWidth=3;dashed=1;entryX=0.205;entryY=0.227;entryDx=0;entryDy=0;entryPerimeter=0;exitX=0.535;exitY=0.549;exitDx=0;exitDy=0;exitPerimeter=0;" parent="1" source="yfoGOaeAojlxQzWnKSBf-49" target="yfoGOaeAojlxQzWnKSBf-20" edge="1">
          <mxGeometry width="50" height="50" relative="1" as="geometry">
            <mxPoint x="10" y="1030" as="sourcePoint" />
            <mxPoint x="310.3800000000001" y="667.96" as="targetPoint" />
            <Array as="points">
              <mxPoint x="-90" y="1140" />
              <mxPoint x="-80" y="910" />
              <mxPoint x="20" y="768" />
            </Array>
          </mxGeometry>
        </mxCell>
        <mxCell id="yfoGOaeAojlxQzWnKSBf-51" value="" style="curved=1;endArrow=classic;html=1;rounded=0;strokeWidth=3;dashed=1;entryX=0.523;entryY=0.731;entryDx=0;entryDy=0;entryPerimeter=0;exitX=0.884;exitY=0.292;exitDx=0;exitDy=0;exitPerimeter=0;" parent="1" source="yfoGOaeAojlxQzWnKSBf-49" target="yfoGOaeAojlxQzWnKSBf-20" edge="1">
          <mxGeometry width="50" height="50" relative="1" as="geometry">
            <mxPoint x="-420" y="1180" as="sourcePoint" />
            <mxPoint x="180" y="628" as="targetPoint" />
            <Array as="points">
              <mxPoint x="-130" y="1060" />
              <mxPoint x="-70" y="1010" />
              <mxPoint x="70" y="1000" />
              <mxPoint x="430" y="940" />
            </Array>
          </mxGeometry>
        </mxCell>
        <mxCell id="yfoGOaeAojlxQzWnKSBf-52" value="" style="curved=1;endArrow=classic;html=1;rounded=0;strokeWidth=3;dashed=1;entryX=0.523;entryY=0.481;entryDx=0;entryDy=0;entryPerimeter=0;exitX=0.185;exitY=0.677;exitDx=0;exitDy=0;exitPerimeter=0;" parent="1" source="yfoGOaeAojlxQzWnKSBf-49" target="yfoGOaeAojlxQzWnKSBf-20" edge="1">
          <mxGeometry width="50" height="50" relative="1" as="geometry">
            <mxPoint x="-420" y="1180" as="sourcePoint" />
            <mxPoint x="180" y="628" as="targetPoint" />
            <Array as="points">
              <mxPoint x="-250" y="970" />
              <mxPoint x="110" y="890" />
              <mxPoint x="400" y="830" />
            </Array>
          </mxGeometry>
        </mxCell>
        <mxCell id="yfoGOaeAojlxQzWnKSBf-50" value="" style="curved=1;endArrow=classic;html=1;rounded=0;strokeWidth=3;dashed=1;entryX=0.486;entryY=0.756;entryDx=0;entryDy=0;entryPerimeter=0;exitX=0.884;exitY=0.75;exitDx=0;exitDy=0;exitPerimeter=0;" parent="1" source="yfoGOaeAojlxQzWnKSBf-39" target="yfoGOaeAojlxQzWnKSBf-7" edge="1">
          <mxGeometry width="50" height="50" relative="1" as="geometry">
            <mxPoint x="-340" y="1490" as="sourcePoint" />
            <mxPoint x="360" y="1358" as="targetPoint" />
            <Array as="points">
              <mxPoint x="210" y="1710" />
              <mxPoint x="270" y="1690" />
              <mxPoint x="320" y="1630" />
            </Array>
          </mxGeometry>
        </mxCell>
        <mxCell id="yfoGOaeAojlxQzWnKSBf-55" value="" style="aspect=fixed;sketch=0;html=1;dashed=0;whitespace=wrap;verticalLabelPosition=bottom;verticalAlign=top;fillColor=#2875E2;strokeColor=#ffffff;points=[[0.005,0.63,0],[0.1,0.2,0],[0.9,0.2,0],[0.5,0,0],[0.995,0.63,0],[0.72,0.99,0],[0.5,1,0],[0.28,0.99,0]];shape=mxgraph.kubernetes.icon2;prIcon=node" parent="1" vertex="1">
          <mxGeometry x="1654" y="623" width="218.75" height="210" as="geometry" />
        </mxCell>
        <mxCell id="yfoGOaeAojlxQzWnKSBf-63" value="" style="endArrow=classic;startArrow=classic;html=1;rounded=0;entryX=0.133;entryY=0.767;entryDx=0;entryDy=0;entryPerimeter=0;exitX=0.739;exitY=0.136;exitDx=0;exitDy=0;exitPerimeter=0;strokeWidth=4;" parent="1" target="yfoGOaeAojlxQzWnKSBf-55" edge="1">
          <mxGeometry width="50" height="50" relative="1" as="geometry">
            <mxPoint x="1298.5625" y="1134.48" as="sourcePoint" />
            <mxPoint x="730" y="810" as="targetPoint" />
          </mxGeometry>
        </mxCell>
        <mxCell id="yfoGOaeAojlxQzWnKSBf-64" value="" style="endArrow=classic;startArrow=classic;html=1;rounded=0;entryX=0.28;entryY=0.99;entryDx=0;entryDy=0;entryPerimeter=0;exitX=0.626;exitY=0.062;exitDx=0;exitDy=0;exitPerimeter=0;strokeWidth=4;" parent="1" target="yfoGOaeAojlxQzWnKSBf-55" edge="1">
          <mxGeometry width="50" height="50" relative="1" as="geometry">
            <mxPoint x="1627.375" y="1121.1599999999999" as="sourcePoint" />
            <mxPoint x="1693" y="831" as="targetPoint" />
          </mxGeometry>
        </mxCell>
        <mxCell id="yfoGOaeAojlxQzWnKSBf-65" value="" style="endArrow=classic;startArrow=classic;html=1;rounded=0;entryX=0.5;entryY=1;entryDx=0;entryDy=0;entryPerimeter=0;exitX=0.312;exitY=0.059;exitDx=0;exitDy=0;exitPerimeter=0;strokeWidth=4;" parent="1" source="yfoGOaeAojlxQzWnKSBf-70" target="yfoGOaeAojlxQzWnKSBf-55" edge="1">
          <mxGeometry width="50" height="50" relative="1" as="geometry">
            <mxPoint x="1891.875" y="1129.98" as="sourcePoint" />
            <mxPoint x="1725" y="878" as="targetPoint" />
          </mxGeometry>
        </mxCell>
        <mxCell id="yfoGOaeAojlxQzWnKSBf-66" value="" style="rounded=0;whiteSpace=wrap;html=1;" parent="1" vertex="1">
          <mxGeometry x="1180" y="600" width="210" height="360" as="geometry" />
        </mxCell>
        <mxCell id="yfoGOaeAojlxQzWnKSBf-59" value="" style="aspect=fixed;sketch=0;html=1;dashed=0;whitespace=wrap;verticalLabelPosition=bottom;verticalAlign=top;fillColor=#2875E2;strokeColor=#ffffff;points=[[0.005,0.63,0],[0.1,0.2,0],[0.9,0.2,0],[0.5,0,0],[0.995,0.63,0],[0.72,0.99,0],[0.5,1,0],[0.28,0.99,0]];shape=mxgraph.kubernetes.icon2;kubernetesLabel=1;prIcon=api" parent="1" vertex="1">
          <mxGeometry x="1190" y="610" width="166.67" height="160" as="geometry" />
        </mxCell>
        <mxCell id="yfoGOaeAojlxQzWnKSBf-67" value="" style="aspect=fixed;sketch=0;html=1;dashed=0;whitespace=wrap;verticalLabelPosition=bottom;verticalAlign=top;fillColor=#2875E2;strokeColor=#ffffff;points=[[0.005,0.63,0],[0.1,0.2,0],[0.9,0.2,0],[0.5,0,0],[0.995,0.63,0],[0.72,0.99,0],[0.5,1,0],[0.28,0.99,0]];shape=mxgraph.kubernetes.icon2;kubernetesLabel=1;prIcon=pod" parent="1" vertex="1">
          <mxGeometry x="1160" y="1110" width="177.08" height="170" as="geometry" />
        </mxCell>
        <mxCell id="yfoGOaeAojlxQzWnKSBf-68" value="" style="aspect=fixed;sketch=0;html=1;dashed=0;whitespace=wrap;verticalLabelPosition=bottom;verticalAlign=top;fillColor=#2875E2;strokeColor=#ffffff;points=[[0.005,0.63,0],[0.1,0.2,0],[0.9,0.2,0],[0.5,0,0],[0.995,0.63,0],[0.72,0.99,0],[0.5,1,0],[0.28,0.99,0]];shape=mxgraph.kubernetes.icon2;kubernetesLabel=1;prIcon=sched" parent="1" vertex="1">
          <mxGeometry x="1195.21" y="790" width="156.25" height="150" as="geometry" />
        </mxCell>
        <mxCell id="yfoGOaeAojlxQzWnKSBf-69" value="" style="aspect=fixed;sketch=0;html=1;dashed=0;whitespace=wrap;verticalLabelPosition=bottom;verticalAlign=top;fillColor=#2875E2;strokeColor=#ffffff;points=[[0.005,0.63,0],[0.1,0.2,0],[0.9,0.2,0],[0.5,0,0],[0.995,0.63,0],[0.72,0.99,0],[0.5,1,0],[0.28,0.99,0]];shape=mxgraph.kubernetes.icon2;kubernetesLabel=1;prIcon=pod" parent="1" vertex="1">
          <mxGeometry x="1496.46" y="1100" width="177.08" height="170" as="geometry" />
        </mxCell>
        <mxCell id="yfoGOaeAojlxQzWnKSBf-70" value="" style="aspect=fixed;sketch=0;html=1;dashed=0;whitespace=wrap;verticalLabelPosition=bottom;verticalAlign=top;fillColor=#2875E2;strokeColor=#ffffff;points=[[0.005,0.63,0],[0.1,0.2,0],[0.9,0.2,0],[0.5,0,0],[0.995,0.63,0],[0.72,0.99,0],[0.5,1,0],[0.28,0.99,0]];shape=mxgraph.kubernetes.icon2;kubernetesLabel=1;prIcon=pod" parent="1" vertex="1">
          <mxGeometry x="1850" y="1100" width="177.08" height="170" as="geometry" />
        </mxCell>
        <mxCell id="yfoGOaeAojlxQzWnKSBf-71" value="&lt;h1 style=&quot;margin-top: 0px;&quot;&gt;% kubectl get pods&lt;/h1&gt;&lt;h1 style=&quot;margin-top: 0px;&quot;&gt;NAME&amp;nbsp; &amp;nbsp; &amp;nbsp; &amp;nbsp; &amp;nbsp; &amp;nbsp; &amp;nbsp; &amp;nbsp; &amp;nbsp; &amp;nbsp; &amp;nbsp; &amp;nbsp; &amp;nbsp; &amp;nbsp; &amp;nbsp; &amp;nbsp; &amp;nbsp; &amp;nbsp; &amp;nbsp; &amp;nbsp; &amp;nbsp; &amp;nbsp; &amp;nbsp;READY&amp;nbsp; &amp;nbsp;STATUS&amp;nbsp; &amp;nbsp; RESTARTS&amp;nbsp; &amp;nbsp;AGE&lt;/h1&gt;&lt;h1 style=&quot;margin-top: 0px;&quot;&gt;sales-report-job-0121c293f9f19fa5-driver&amp;nbsp; &amp;nbsp;1/1&amp;nbsp; &amp;nbsp; &amp;nbsp;Running&amp;nbsp; &amp;nbsp;0&amp;nbsp; &amp;nbsp; &amp;nbsp; &amp;nbsp; &amp;nbsp; 38s&lt;/h1&gt;&lt;h1 style=&quot;margin-top: 0px;&quot;&gt;sales-report-job-5fa10793f9f1b559-exec-1&amp;nbsp; &amp;nbsp;1/1&amp;nbsp; &amp;nbsp; &amp;nbsp;Running&amp;nbsp; &amp;nbsp;0&amp;nbsp; &amp;nbsp; &amp;nbsp; &amp;nbsp; &amp;nbsp; 32s&lt;/h1&gt;&lt;h1 style=&quot;margin-top: 0px;&quot;&gt;sales-report-job-5fa10793f9f1b559-exec-2&amp;nbsp; &amp;nbsp;1/1&amp;nbsp; &amp;nbsp; &amp;nbsp;Running&amp;nbsp; &amp;nbsp;0&amp;nbsp; &amp;nbsp; &amp;nbsp; &amp;nbsp; &amp;nbsp; 32s&lt;/h1&gt;&lt;h1 style=&quot;margin-top: 0px;&quot;&gt;sales-report-job-5fa10793f9f1b559-exec-3&amp;nbsp; &amp;nbsp;1/1&amp;nbsp; &amp;nbsp; &amp;nbsp;Running&amp;nbsp; &amp;nbsp;0&amp;nbsp; &amp;nbsp; &amp;nbsp; &amp;nbsp; &amp;nbsp; 32s&lt;/h1&gt;&lt;h1 style=&quot;margin-top: 0px;&quot;&gt;spark-job-service-f545bd7d8-4rxrq&amp;nbsp; &amp;nbsp; &amp;nbsp; &amp;nbsp; &amp;nbsp; &amp;nbsp; &amp;nbsp; &amp;nbsp; 1/1&amp;nbsp; &amp;nbsp; &amp;nbsp;Running&amp;nbsp; &amp;nbsp;0&amp;nbsp; &amp;nbsp; &amp;nbsp; &amp;nbsp; &amp;nbsp; 85s&lt;/h1&gt;" style="text;html=1;whiteSpace=wrap;overflow=hidden;rounded=0;" parent="1" vertex="1">
          <mxGeometry x="1040" y="-10" width="1050" height="309" as="geometry" />
        </mxCell>
        <mxCell id="yfoGOaeAojlxQzWnKSBf-74" value="&lt;h1 style=&quot;text-align: left; margin-top: 0px;&quot;&gt;&lt;font style=&quot;font-size: 19px;&quot;&gt;sales-report-job-0121c293f9f19fa5-driver&amp;nbsp;&lt;/font&gt;&lt;/h1&gt;" style="rounded=1;whiteSpace=wrap;html=1;" parent="1" vertex="1">
          <mxGeometry x="1540" y="857" width="450" height="53" as="geometry" />
        </mxCell>
        <mxCell id="yfoGOaeAojlxQzWnKSBf-76" value="&lt;h1 style=&quot;text-align: left; margin-top: 0px;&quot;&gt;sales-report-job-5fa10793f9f1b559-exec-1&amp;nbsp;&lt;/h1&gt;" style="rounded=1;whiteSpace=wrap;html=1;" parent="1" vertex="1">
          <mxGeometry x="1099" y="1292" width="300" height="83" as="geometry" />
        </mxCell>
        <mxCell id="yfoGOaeAojlxQzWnKSBf-79" value="&lt;b&gt;&lt;font style=&quot;font-size: 17px;&quot;&gt;spark-submit&lt;/font&gt;&lt;/b&gt;" style="text;html=1;align=center;verticalAlign=middle;whiteSpace=wrap;rounded=0;" parent="1" vertex="1">
          <mxGeometry x="930" y="673" width="170" height="30" as="geometry" />
        </mxCell>
        <mxCell id="yfoGOaeAojlxQzWnKSBf-83" value="" style="curved=1;endArrow=classic;html=1;rounded=0;strokeWidth=3;dashed=1;entryX=0.732;entryY=0.026;entryDx=0;entryDy=0;entryPerimeter=0;" parent="1" target="yfoGOaeAojlxQzWnKSBf-67" edge="1">
          <mxGeometry width="50" height="50" relative="1" as="geometry">
            <mxPoint x="1340" y="140" as="sourcePoint" />
            <mxPoint x="1666.06" y="705" as="targetPoint" />
            <Array as="points">
              <mxPoint x="1460" y="500" />
              <mxPoint x="1480" y="690" />
              <mxPoint x="1450" y="930" />
            </Array>
          </mxGeometry>
        </mxCell>
        <mxCell id="yfoGOaeAojlxQzWnKSBf-84" value="" style="curved=1;endArrow=classic;html=1;rounded=0;strokeWidth=3;dashed=1;entryX=0.351;entryY=0.046;entryDx=0;entryDy=0;entryPerimeter=0;" parent="1" target="yfoGOaeAojlxQzWnKSBf-69" edge="1">
          <mxGeometry width="50" height="50" relative="1" as="geometry">
            <mxPoint x="1400" y="190" as="sourcePoint" />
            <mxPoint x="1300" y="1124" as="targetPoint" />
            <Array as="points">
              <mxPoint x="1520" y="510" />
              <mxPoint x="1540" y="690" />
              <mxPoint x="1510" y="930" />
            </Array>
          </mxGeometry>
        </mxCell>
        <mxCell id="yfoGOaeAojlxQzWnKSBf-85" value="" style="curved=1;endArrow=classic;html=1;rounded=0;strokeWidth=3;dashed=1;entryX=0.211;entryY=0.176;entryDx=0;entryDy=0;entryPerimeter=0;exitX=0.39;exitY=0.809;exitDx=0;exitDy=0;exitPerimeter=0;" parent="1" source="yfoGOaeAojlxQzWnKSBf-71" target="yfoGOaeAojlxQzWnKSBf-70" edge="1">
          <mxGeometry width="50" height="50" relative="1" as="geometry">
            <mxPoint x="1470" y="270" as="sourcePoint" />
            <mxPoint x="1569" y="1118" as="targetPoint" />
            <Array as="points">
              <mxPoint x="1600" y="490" />
              <mxPoint x="1620" y="680" />
              <mxPoint x="1610" y="880" />
            </Array>
          </mxGeometry>
        </mxCell>
        <mxCell id="yfoGOaeAojlxQzWnKSBf-22" value="" style="shape=flexArrow;endArrow=classic;html=1;rounded=0;exitX=0.964;exitY=0.369;exitDx=0;exitDy=0;exitPerimeter=0;" parent="1" source="yfoGOaeAojlxQzWnKSBf-8" edge="1">
          <mxGeometry width="50" height="50" relative="1" as="geometry">
            <mxPoint x="-580" y="950" as="sourcePoint" />
            <mxPoint x="-510" y="840" as="targetPoint" />
          </mxGeometry>
        </mxCell>
        <mxCell id="yfoGOaeAojlxQzWnKSBf-88" value="" style="aspect=fixed;sketch=0;html=1;dashed=0;whitespace=wrap;verticalLabelPosition=bottom;verticalAlign=top;fillColor=#2875E2;strokeColor=#ffffff;points=[[0.005,0.63,0],[0.1,0.2,0],[0.9,0.2,0],[0.5,0,0],[0.995,0.63,0],[0.72,0.99,0],[0.5,1,0],[0.28,0.99,0]];shape=mxgraph.kubernetes.icon2;kubernetesLabel=1;prIcon=pod" parent="1" vertex="1">
          <mxGeometry x="721" y="400" width="177.08" height="170" as="geometry" />
        </mxCell>
        <mxCell id="yfoGOaeAojlxQzWnKSBf-89" value="&lt;h1 style=&quot;text-align: left; margin-top: 0px;&quot;&gt;spark-job-service-f545bd7d8-4rxrq&lt;/h1&gt;" style="rounded=1;whiteSpace=wrap;html=1;" parent="1" vertex="1">
          <mxGeometry x="710" y="570" width="230" height="80" as="geometry" />
        </mxCell>
        <mxCell id="yfoGOaeAojlxQzWnKSBf-90" value="" style="curved=1;endArrow=classic;html=1;rounded=0;strokeWidth=3;dashed=1;entryX=0.872;entryY=0.363;entryDx=0;entryDy=0;entryPerimeter=0;exitX=0.172;exitY=0.985;exitDx=0;exitDy=0;exitPerimeter=0;" parent="1" source="yfoGOaeAojlxQzWnKSBf-71" target="yfoGOaeAojlxQzWnKSBf-88" edge="1">
          <mxGeometry width="50" height="50" relative="1" as="geometry">
            <mxPoint x="1350" y="150" as="sourcePoint" />
            <mxPoint x="1300" y="1124" as="targetPoint" />
            <Array as="points">
              <mxPoint x="1130" y="340" />
            </Array>
          </mxGeometry>
        </mxCell>
        <mxCell id="yfoGOaeAojlxQzWnKSBf-15" value="" style="curved=1;endArrow=classic;html=1;rounded=0;exitX=0.576;exitY=0.227;exitDx=0;exitDy=0;exitPerimeter=0;strokeWidth=3;dashed=1;entryX=0.591;entryY=0.077;entryDx=0;entryDy=0;entryPerimeter=0;" parent="1" source="yfoGOaeAojlxQzWnKSBf-14" target="yfoGOaeAojlxQzWnKSBf-20" edge="1">
          <mxGeometry width="50" height="50" relative="1" as="geometry">
            <mxPoint x="-170" y="730" as="sourcePoint" />
            <mxPoint x="430" y="570" as="targetPoint" />
            <Array as="points">
              <mxPoint x="-210" y="650" />
              <mxPoint x="-90" y="580" />
              <mxPoint x="-10" y="530" />
              <mxPoint x="160" y="500" />
              <mxPoint x="460" y="500" />
            </Array>
          </mxGeometry>
        </mxCell>
        <mxCell id="0xrCPZ1beF0Nvzpc6FTi-11" value="" style="group" parent="1" vertex="1" connectable="0">
          <mxGeometry x="-690" y="1350" width="510" height="110" as="geometry" />
        </mxCell>
        <mxCell id="0xrCPZ1beF0Nvzpc6FTi-12" value="" style="shape=note;whiteSpace=wrap;html=1;backgroundOutline=1;darkOpacity=0.05;" parent="0xrCPZ1beF0Nvzpc6FTi-11" vertex="1">
          <mxGeometry width="510" height="110" as="geometry" />
        </mxCell>
        <mxCell id="0xrCPZ1beF0Nvzpc6FTi-13" value="&lt;h1 style=&quot;margin-top: 0px;&quot;&gt;&lt;font style=&quot;&quot;&gt;&lt;span style=&quot;background-color: initial;&quot;&gt;&lt;font style=&quot;font-size: 21px;&quot;&gt;spark-job-service&lt;/font&gt;&lt;/span&gt;&lt;span style=&quot;font-size: 16px; background-color: initial; font-weight: normal;&quot;&gt;&amp;nbsp;-&amp;nbsp;&lt;/span&gt;&lt;span style=&quot;font-size: 20px;&quot;&gt;Dockerfile&lt;/span&gt;&lt;/font&gt;&lt;/h1&gt;&lt;div&gt;&lt;font style=&quot;&quot;&gt;&lt;div style=&quot;&quot;&gt;&lt;span style=&quot;font-family: &amp;quot;JetBrains Mono&amp;quot;, monospace; font-size: 10.5pt; background-color: rgb(255, 255, 255); color: rgb(0, 51, 179);&quot;&gt;ENV &lt;/span&gt;&lt;span style=&quot;font-family: &amp;quot;JetBrains Mono&amp;quot;, monospace; font-size: 10.5pt; background-color: rgb(255, 255, 255); color: rgb(135, 16, 148); font-style: italic;&quot;&gt;SPARK_HOME&lt;/span&gt;&lt;span style=&quot;font-family: &amp;quot;JetBrains Mono&amp;quot;, monospace; font-size: 10.5pt; background-color: rgb(255, 255, 255); color: rgb(8, 8, 8);&quot;&gt;=&lt;/span&gt;&lt;span style=&quot;font-family: &amp;quot;JetBrains Mono&amp;quot;, monospace; font-size: 10.5pt; background-color: rgb(255, 255, 255); color: rgb(0, 51, 179);&quot;&gt;/&lt;/span&gt;&lt;span style=&quot;font-family: &amp;quot;JetBrains Mono&amp;quot;, monospace; font-size: 10.5pt; background-color: rgb(255, 255, 255); color: rgb(8, 8, 8);&quot;&gt;opt&lt;/span&gt;&lt;span style=&quot;font-family: &amp;quot;JetBrains Mono&amp;quot;, monospace; font-size: 10.5pt; background-color: rgb(255, 255, 255); color: rgb(0, 51, 179);&quot;&gt;/&lt;/span&gt;&lt;span style=&quot;font-family: &amp;quot;JetBrains Mono&amp;quot;, monospace; font-size: 10.5pt; background-color: rgb(255, 255, 255); color: rgb(8, 8, 8);&quot;&gt;spark&lt;/span&gt;&lt;/div&gt;&lt;div style=&quot;font-size: 16px;&quot;&gt;&lt;br&gt;&lt;/div&gt;&lt;div style=&quot;&quot;&gt;&lt;span style=&quot;font-size: 16px;&quot;&gt;&amp;nbsp; &amp;nbsp; &amp;nbsp;&amp;nbsp;&lt;/span&gt;&lt;/div&gt;&lt;/font&gt;&lt;/div&gt;" style="text;html=1;whiteSpace=wrap;overflow=hidden;rounded=0;" parent="0xrCPZ1beF0Nvzpc6FTi-11" vertex="1">
          <mxGeometry x="4.205094339622641" width="496.17226415094336" height="103.5294117647059" as="geometry" />
        </mxCell>
        <mxCell id="0xrCPZ1beF0Nvzpc6FTi-14" value="" style="shape=image;verticalLabelPosition=bottom;labelBackgroundColor=default;verticalAlign=top;aspect=fixed;imageAspect=0;image=data:image/png,iVBORw0KGgoAAAANSUhEUgAAAdoAAAD+CAYAAACdrsQ7AAAMU2lDQ1BJQ0MgUHJvZmlsZQAASImVVwlYU8fanrNkJSGQQFhkCfsmiMgSQJYQtgCyL4KohCRAWGJMCCruaGkF6y4iuFS0CmLRagWkuKFWrRTF3boUFxQqtViLu3InBNBy7//f587zzJn3vPPNO9/3nZlzzgDA6BLK5fmoDgAFskJFfFgQZ2pqGofUA2iACQwACTCFIqWcFxsbBWAZaf9ZXl4HiLq94qzW+vf+/7foiiVKEQBILMSZYqWoAOIfAMBbRXJFIQBEOeSt5hTK1XgDxHoK6CDEtWqcrcGtapypwZeGbBLj+RA/AoBMEwoV2QBo90OeUyTKhjoMGC1wlYmlMogDIfYvKJglhngJxPbQBs7JUOtzMz/Tyf6HZuaoplCYPYo1sQwVcrBUKc8Xzvsf0/HfS0G+amQOO1hpOYrweHXMMG+P8mZFqjEN4teyzOgYiJkAoLhUPGSvxuwcVXiSxh61Fyn5MGeADfFkZX6CYJiPFwuDIyE2gThLlh8dNWxTkiUNVdvA/KGV0kJBIsSGENdKlCEJwzYnFLPiR+a9nqXg84b5HqFiyAe1/kdVXhJPo48xcySCYX3MpTgnMQViKsTBRdLkaIi1IY5W5iVEDtukF+fwo0dsFKp4dSzWECsksrAgjT5WkaUIjR+231ugHIkdO5EjFUQP48uFOYnhmlxhj0TCIf9hLFi/RMZLGtGRKKdGjcQilgSHaGLHyRJZUoKGxw3lhUHxmrG4ozw/dtgeD5Lkh6l5S4gTlUUJI2OLCuHi1OjjpfLC2ESNn3hVrjAiVuMPfgBEAT4IBhyggjUTzAK5QNrR19QH7zQ9oUAIFCAbSIDzMDMyImWoRwavCaAY/AGRBChHxwUN9UpAEeQ/jGHVnHSU01ydQdZwn1olDzyGuABEgnx4rxpSko16kAweQUb6bx4JYRXBGPJhVff/Z36E/cTwIBM1zKhGZuQwRiyJIcRgYjgxlOiAG+P+uC8eBa+BsLrhXNx7JI5P9oTHhE7CA8I1Qhfh1kxpiWKMl1NAF9QPHc5P5uf5wW2hpgcehPtBdaiMs3Fj4Iy7w3l4eACc2QOy/GG/1VnhjNH+RwSfPaFhO4orBaUYUAIp9mNHajtqe4yqqHP9eX40vmaO5ps/2jN2fv5n2RfDNnKsJfYVdgg7i53EzmOtWBPgYMexZqwdO6rGoyvu0dCKG5ktfsifPKgzds18erLqTCpd6117Xd9r+golcwvVm5E/Sz5PIc3OKeTw4BdDwhHIRC7jOW6ubu4AqL8/mtfbi7ih7wrCbv/ELfsNAL/jg4ODP37iIo4D8L0XfCUc+cTZc+GnRQuAc0dEKkWRhsPVFwJ8czDg7jMCZsAK2MN43IAn8AWBIAREgBiQCFLBDOh9DlznCjAHLABLQSkoB2vARlAFtoOdoBZ8Bw6CJtAKToKfwAVwCVwDt+Hq6QZPQT94Cd4hCEJC6AgLMULMERvECXFDuIg/EoJEIfFIKpKBZCMyRIUsQJYh5cg6pArZgdQh3yNHkJPIeaQTuYXcR3qRv5C3KIbSUD3UFLVFJ6BclIdGoonodDQbnY0Wo8vRVWglWoPuQxvRk+gF9BrahT5FBzCAaWFszAJzxrgYH4vB0rAsTIEtwsqwCqwGa8Ba4HO+gnVhfdgbnIizcA7uDFdwOJ6Ei/DZ+CJ8JV6F1+KN+Gn8Cn4f78c/EugEE4ITwYcgIEwlZBPmEEoJFYTdhMOEM3AvdRNeEolENtGO6AX3YioxlzifuJK4lbifeILYSXxIHCCRSEYkJ5IfKYYkJBWSSkmbSftIx0mXSd2k12QtsjnZjRxKTiPLyCXkCvJe8jHyZfIT8juKDsWG4kOJoYgp8yirKbsoLZSLlG7KO6ou1Y7qR02k5lKXUiupDdQz1DvUF1paWpZa3lpxWlKtJVqVWge0zmnd13pDY9IcaXxaOk1FW0XbQztBu0V7QafTbemB9DR6IX0VvY5+in6P/lqbpe2iLdAWay/WrtZu1L6s/YxBYdgweIwZjGJGBeMQ4yKjT4eiY6vD1xHqLNKp1jmic0NnQJelO1E3RrdAd6XuXt3zuj1MEtOWGcIUM5czdzJPMR+yMJYVi88SsZaxdrHOsLr1iHp2egK9XL1yve/0OvT69Zn67vrJ+nP1q/WP6nexMbYtW8DOZ69mH2RfZ781MDXgGUgMVhg0GFw2eGU4zjDQUGJYZrjf8JrhWyOOUYhRntFaoyaju8a4saNxnPEc423GZ4z7xumN8x0nGlc27uC4X01QE0eTeJP5JjtN2k0GTM1Mw0zlpptNT5n2mbHNAs1yzTaYHTPrNWeZ+5tLzTeYHzf/naPP4XHyOZWc05x+CxOLcAuVxQ6LDot3lnaWSZYllvst71pRrbhWWVYbrNqs+q3NradYL7Cut/7VhmLDtcmx2WRz1uaVrZ1tiu2Xtk22PXaGdgK7Yrt6uzv2dPsA+9n2NfZXHYgOXIc8h60OlxxRRw/HHMdqx4tOqJOnk9Rpq1PneMJ47/Gy8TXjbzjTnHnORc71zvdd2C5RLiUuTS7PJlhPSJuwdsLZCR9dPVzzXXe53p7InBgxsWRiy8S/3BzdRG7Vblcn0SeFTlo8qXnSc3cnd4n7NvebHiyPKR5ferR5fPD08lR4Nnj2ell7ZXht8brB1ePGcldyz3kTvIO8F3u3er/x8fQp9Dno86evs2+e717fnsl2kyWTd01+6GfpJ/Tb4dflz/HP8P/GvyvAIkAYUBPwINAqUBy4O/AJz4GXy9vHexbkGqQIOhz0iu/DX8g/EYwFhwWXBXeEMEOSQqpC7oVahmaH1of2h3mEzQ87EU4IjwxfG35DYCoQCeoE/RFeEQsjTkfSIhMiqyIfRDlGKaJapqBTIqasn3In2iZaFt0UA2IEMetj7sbaxc6O/TGOGBcbVx33OH5i/IL4swmshJkJexNeJgYlrk68nWSfpEpqS2YkpyfXJb9KCU5Zl9I1dcLUhVMvpBqnSlOb00hpyWm70wamhUzbOK073SO9NP36dLvpc6efn2E8I3/G0ZmMmcKZhzIIGSkZezPeC2OENcKBTEHmlsx+EV+0SfRUHCjeIO6V+EnWSZ5k+WWty+rJ9sten92bE5BTkdMn5UurpM9zw3O3577Ki8nbkzeYn5K/v4BckFFwRMaU5clOzzKbNXdWp9xJXirvmu0ze+PsfkWkYrcSUU5XNhfqwR/9dpW96gvV/SL/ouqi13OS5xyaqztXNrd9nuO8FfOeFIcWfzsfny+a37bAYsHSBfcX8hbuWIQsylzUtthq8fLF3UvCltQupS7NW/pLiWvJupK/l6Usa1luunzJ8odfhH1RX6pdqii98aXvl9u/wr+SftWxYtKKzSs+lonLfi53La8of79StPLnryd+Xfn14KqsVR2rPVdvW0NcI1tzfW3A2tp1uuuK1z1cP2V94wbOhrINf2+cufF8hXvF9k3UTapNXZVRlc2brTev2fy+KqfqWnVQ9f4tJltWbHm1Vbz18rbAbQ3bTbeXb3/7jfSbmzvCdjTW2NZU7CTuLNr5eFfyrrPfcr+t2228u3z3hz2yPV218bWn67zq6vaa7F1dj9ar6nv3pe+79F3wd80Nzg079rP3lx8AB1QHfv8+4/vrByMPth3iHmr4weaHLYdZh8sakcZ5jf1NOU1dzanNnUcijrS1+LYc/tHlxz2tFq3VR/WPrj5GPbb82ODx4uMDJ+Qn+k5mn3zYNrPt9qmpp66ejjvdcSbyzLmfQn86dZZ39vg5v3Ot533OH/mZ+3PTBc8Lje0e7Yd/8fjlcIdnR+NFr4vNl7wvtXRO7jx2OeDyySvBV366Krh64Vr0tc7rSddv3ki/0XVTfLPnVv6t578W/fru9pI7hDtld3XuVtwzuVfzm8Nv+7s8u47eD77f/iDhwe2HoodPHykfve9e/pj+uOKJ+ZO6Hree1t7Q3ku/T/u9+6n86bu+0j90/9jyzP7ZD38G/tneP7W/+7ni+eBfK18Yvdjzt/vfbQOxA/deFrx896rstdHr2jfcN2ffprx98m7Oe9L7yg8OH1o+Rn68M1gwOCgXKoRDvwIYUB9tsgD4aw8A9FQAWPDcSJ2mOR8OFURzph1C4P/CmjPkUPEEoAH+08f1wb+bGwAc2AWALdRnpAMQSwcg0RugkyaN1pGz3NC5U12I8GzwTdyHzIJM8B+K5kz6md9jW6BWdQdj238BX0uDAfeUN/YAAACKZVhJZk1NACoAAAAIAAQBGgAFAAAAAQAAAD4BGwAFAAAAAQAAAEYBKAADAAAAAQACAACHaQAEAAAAAQAAAE4AAAAAAAAAkAAAAAEAAACQAAAAAQADkoYABwAAABIAAAB4oAIABAAAAAEAAAHaoAMABAAAAAEAAAD+AAAAAEFTQ0lJAAAAU2NyZWVuc2hvdJ+Pb5YAAAAJcEhZcwAAFiUAABYlAUlSJPAAAAHWaVRYdFhNTDpjb20uYWRvYmUueG1wAAAAAAA8eDp4bXBtZXRhIHhtbG5zOng9ImFkb2JlOm5zOm1ldGEvIiB4OnhtcHRrPSJYTVAgQ29yZSA2LjAuMCI+CiAgIDxyZGY6UkRGIHhtbG5zOnJkZj0iaHR0cDovL3d3dy53My5vcmcvMTk5OS8wMi8yMi1yZGYtc3ludGF4LW5zIyI+CiAgICAgIDxyZGY6RGVzY3JpcHRpb24gcmRmOmFib3V0PSIiCiAgICAgICAgICAgIHhtbG5zOmV4aWY9Imh0dHA6Ly9ucy5hZG9iZS5jb20vZXhpZi8xLjAvIj4KICAgICAgICAgPGV4aWY6UGl4ZWxZRGltZW5zaW9uPjI1NDwvZXhpZjpQaXhlbFlEaW1lbnNpb24+CiAgICAgICAgIDxleGlmOlBpeGVsWERpbWVuc2lvbj40NzQ8L2V4aWY6UGl4ZWxYRGltZW5zaW9uPgogICAgICAgICA8ZXhpZjpVc2VyQ29tbWVudD5TY3JlZW5zaG90PC9leGlmOlVzZXJDb21tZW50PgogICAgICA8L3JkZjpEZXNjcmlwdGlvbj4KICAgPC9yZGY6UkRGPgo8L3g6eG1wbWV0YT4KJj4e0QAAABxpRE9UAAAAAgAAAAAAAAB/AAAAKAAAAH8AAAB/AAAufnEZZL4AAC5KSURBVHgB7J0JYFXVtf7XHXMDYVQRASGgdaQMtVprtSpqVUBFESrYKrbOaJXn0FafOFv1b53qUKt1VioqDxTFoiJOVZyx1Tq0CqIoiEwBktzxv751zr7ehCTeDDckud9+3jPss8/0O/R9WWuvvXYgo0VYSIAESIAESIAECkIgQKEtCFdelARIgARIgASMAIWW/xBIgARIgARIoIAEKLQFhMtLkwAJkAAJkACFlv8GSIAESIAESKCABCi0BYTLS5MACZAACZAAhZb/BkiABEiABEiggAQotAWEy0uTAAmQAAmQAIWW/wZIgARIgARIoIAEKLQFhMtLkwAJkAAJkACFlv8GSIAESIAESKCABCi0BYTLS5MACZAACZAAhZb/BkiABEiABEiggAQ6nNCm0+l6cQWDwXqP8QAJkAAJkAAJFIJAhxBaiCt+8XjcGNUlthDZcDhsPwpuIf4p8ZokQAIkQAJ1EWj3QusEds5b/5UXlsQlEOokgUBA3zVl7xsOhwQzAabjVdI/ViWT9tlROnXqJBBbCm5d/yRYRwIkQAIk0JIE2r3QJpNJWblypZz/5CJJR0olkw6odauIMr7QRkIqvNgXCYcCsnlypUwZubOUlZWZddtYmBTnxhJjexIgARIobgLtXmg3bNggX375pZz3zGpJqMiqmkoy5bmS8WlD4YAJbSaZkWg4KNFoSLpKhRyyfXcZNrC3lJVG8rZsnchGo1FaxMX9vxu+PQmQAAnkTaBDCO2iRYvknGc2SCKVkUwoaBZtWsUWJahCi5KKp1UcAxJRoY1GghJRQQ7pfjhih9US9tZpvYaVkFcRkJDtBtUkDgYyEpG4jCyPyqG7baei7QmudwKXJEACJEACJLAxgXYvtOvWrZNPPvlEzpof12CojCSr4+o1zkgq4b1sKBK2jXTSdyWXaN+supAhv2ahpj1hDZV4gprxo5YDfoRyKuGdh37foIp4IBSSWKBS/nrUttKzZ88muZ83/gysIQESIAES6KgEOozQnj63SpJVKUlUJhoU2mDEs3AzvsWbTnr74Zg39Kd+oVU3tFrCoWhEIqUBuXPs5rLVVltZYFV7+ccxY8YM+fTTT2WzzTaTSZMmtZfH5nOSAAmQQLsm0GGE9ux5SfnxkH7Ss1uJuYVhwCIIyvccq/nqCWoAUVEovqvY3xPfsFUL1TvsXMkwfTVoWft9ReK6WFNZLa/96wu5dt8SKS8vb1dCe9xxx8krr7wi/fv3l7lz53ovyiUJkAAJkEBBCXQYoZ22bAvp1bOLxNQFHFZRTSEwSktWaL1dLwIZB5zQ+vW+x7hOoUXzuAZTJVWN4+mUfL1qnUzcfLkMGjTIopdxvD0UCm17+Ep8RhIggY5GoFWEds2aNdKtW7dGsVu9erV07979O89xfbSz1m0tnWMRDXDSxBT4OQF1yaB809WvVtH0Lu13zWqIk1/8eljDKM7ShUFsQptIyoaqhIzp8nmzhRZjgL/++mtZvny5CTZc0bFYzLtxnku8P4LBMFypb9++Eon40V11nE+hrQMKq0iABEigwAQKLrR/+9vf5MMPP5Rhw4bJYYcdltfr/P3vfzcXJ4TnpJNOavAcJ7QzKvqrNRuWUED7UQsktClVXYzbraxOytiuS5ostLjGrbfeKg899JCsWLEi+37IXLX//vvLmWeeaW7p7AHdwFjhPffc06ouvPBCGTp0qFxxxRXy2muvZZt17txZjjrqKDs/V3BxzaVLl1r2LNfYDVWCVT579mxXzTUJkAAJkEALEyi40F500UXqrtWeUe3oHD58+HeK7cyZM2XhwoX2mjgHotOQZeuEdnrF1hKLhiUawLAdDMbxStq3aIO+paoBx1ZS/hr9r1b8fX9PdCSPFb9rV5K6Bws0FU9JVTwh47o33aI9//zz5dFHH3W32mjdp08fmTZtmmy55ZbZY7B899prL9ufMGGCzJo1SzCGuK4yfvx4ueSSS7KH9t57b1m2bFl2P3djwIABgj9sWEiABEiABApDoOBC+8477wjE04ktLNsxY8bU+TYLFiyQp556yo7piFgZPuy7hbm9Ce0NN9xg1ixecvDgwfLzn/9cdtllF/nss8/kmWeekUceecTef/vtt5cHHngg2wecK7TWQBcQ1AMOOMAEGUFO9913n3z++ed2GFYvBBkFCT2QB/rcc8+1P2Ig4Pfee68dKykpkd69e9s2FyRAAiRAAi1PoOBCi0d2YosIXoxghduzttiiDaw0WLEo+Vi/aOeE9uHV/dSi1SxPOtYVblFv9KtIzDdhNV+FFR2hYyXpElN4u5o1yjNpEfSEguQWKAm/k7ZEn9vyKgdSUq39tEd2brzrGH2xP/3pT+266E+FqPbo0cP23QIeALjbUc4++2w5/vjjbbu20B5zzDFy3nnn2TG3+O9//yvjxo0zSxcC+uabb9YY58s+WkeKaxIgARJoPQKtIrR4nYWwbH0hhXWbK7Zvv/2OPPbYrOxbN6Y/tz0J7bx58+TUU0+197z99tuzruDsi+sGLE/0qUKUDzroILn++uvtcK7Q9uvXzyx/9OnWLnfddZdcddVVVv3YY4/Jdtttl21Coc2i4AYJkAAJtBqBVhNavNH8+fPl+eefN6sVYgtBLS8vN9cyjls/LoKm6nEto03t4oR2+lqvjzYU9PpofQNWI5C9M1xXrFtnUy3qc6A4yfKbS8KrlpB/guujzegAW7Noyz5rdDDUjTfeKLfccovdD0FMXbt2te3aCwSAgROs3meffdYO5wrtyJEj5dprr619mu2//fbbWZcxBDc3AI1CWycyVpIACZBAQQm0qtDiTeAehpsYxbmJbUcX+bqLXXus25PQnnjiifLCCy9Ir169bJ37Hrnb11xzjdxxxx1W9eqrr1owWK7QnnHGGXLKKafknpLdBo8f/vCHtn/sscfK73//++wxCm0WBTdIgARIoNUItLrQ4s0QHOXEFpatcyXnWl/5EnBC+9CqflKiUcel+rM+Wt8SdVHGrq/VN1TtnrhHdt9Zvn7nbtKPW476fbXoOrY+Wp1+DxbtuLLG99G2lNAiEvvkk0+uExGFtk4srCQBEiCBTUZgkwgt3vYxtWzf9i3b3P7axpJwQjvdD4aK6ew8GN7jxzRlE1cknC/Zv4EbtlNbaDXxkxUXTBV1AqxCm9LhPQlfaMc2IRgqN+K4IdcxRBRu9qa4jvEHDMbSolx55ZU1gs5o0RoWLkiABEigVQlsMqHFW0IUqqqqZPfdd2/ySzuhnbGuv1m0Ye2UhdCm0amaU3R4rRXXB+syQ/mGb9aydQLsBuJq/gsraA+hTWm+46rqhIxvwjha9LdOnjzZrleoYKi7777bBBY3gZsew4RccUKLcboIzGIhARIgARIoPIFNKrQt8XpOaGetH2AJK8I6TAdT3GUKILRwHSdVcavjSTmia+ODoZA0AskjUGCtImlF7WQc+Q7vqd3/imtiukAM71m/fr3NlfvWW2/VGN7jXNdo6/qKsc1CAiRAAiRQOAIdRmhnaNRxiY6jjcGi1bG0zvXroo6dBessVN/AzeY8du1qu5hdvSaEkpROrYcJ5as1M9QRTUzBmOs+RsIKuHkRvLRkyRJ5+umnZfr06fa1MSznwQcfbDBhBc5FwgoknEDCCiShQOILFGSf+uUvf2nbbnHxxRdbxins77fffnZvzOSD7FAsJEACJEAChSHQYYT2jsVlEo2EpCSkEwtoBFTKn54HEwyg+NPPqrXrgdQp3P16r/MWM/6gJPzcjM6lHA57xzX+SYU2owFRCIZKyQkDKho9vMduoIvvSsGIHM9IWlFfCsYjjzxSHn/8camurnaXrLEeO3asXH755TXqsIMI5trz0DIF40aYWEECJEACLUqgwwjttFV91F0a1knfdUysWrQhXzh9nVVL1OPm+mpdYiiXAznghyd/O1uPJ7VuXtqUhh3DosWE8XAdH93rqyYLLSYVuPnmm21SAUwW4EooFDJLc8qUKTJw4EBXbevc4T1Tp06VIUOGyB/+8AfL/uQalpaWWlrGs846y1zHrj53PWfOHEvt+MYbb1g1xjG7tJe57bhNAiRAAiTQMgQ6jNDe8rFOKFAS1WCljA3vcS5fpGRESfu+46B/IOUraCDlHQ/4GSvcJAOefesN6bHz1bBFHy1OS2j2ptN2SjVZaO2BdJFKpSzZP8QWIglLtlOnTu5wjXVtoZ04caIdr6iosPzGSLmIjFHRaLTGefXtoG8bgo/75XtOfddiPQmQAAmQQP0EOoTQYj7WP72XkVi3nprrOGRjZJ2lmg54rt+gnwEq41u6Ia/a5pjNxeMENuBP3+OikNMZzXWsKpyo1qjjNd/IGcNCAmsQ88C2RqlPaFvj3rwHCZAACZBA0wm0e6HFVHGYneb+5xbK0m47SLhzF6WhcqmuYmhrxhdaJMWw4oTW74TNTi7g77tmWaFVgxdWbkaFFjMKVa1aK33Xfyi/GDHEIofrs0Cb/knqPpNCWzcX1pIACZBAWyfQ7oUWSfhXr14tixcvtsnNl6+qkA06ztWNg837A/hBUn4M1canqU53KolIrx5dBONQEUSEoTmt5Xal0G78SVhDAiRAAu2BQLsXWvSbIukF+hzXrFkjlZWV1veJ+pYsSOuIYCX0pWIygC5dukgsFrP+4Ja8T33XguV+3XXX2WFMKoC80CwkQAIkQAJtn0C7F1og9hJJJC24BwE+rs42WmgBoUXB1HTu5+pa6Ba8DAmQAAmQQAck0CGEtgN+F74SCZAACZBAByFAoe0gH5KvQQIkQAIk0DYJUGjb5nfhU5EACZAACXQQAhTaDvIh+RokQAIkQAJtk0BBhDaDdIUa9etlUtK1NxD12xE3uu8PW22bVPhUJEACJEACJNBCBFpcaBH1m9Q5W1MuuXALPSgvQwIkQAIkQALtkUCLCS2s2IROcZNIarIIFhIgARIgARIgASPQYkIb1zlaKbL8V0UCJEACJEACNQm0iNDCXVytqRBZSIAESIAESIAEahJottDCZVxdHS/6PlkEfmHiAvBAwRqZo9y6JnbukQAJkAAJFAuBZgttUudUra6uLhZeNd7ToqrtDw3v/Z3YukYQWeRHzv25Y1yTAAmQAAkUB4FmC208oX2z+iu2AlHFzEHP/muJ/GNpSkLhzjYvnw5s0kn6MhKO6Ezy2iYZr5b+JRtk/I8G2iTrsHKZI7nY/rXwfUmABIqZQLOFFtYsrNpiKyl955UrV8pl876STLSzZFJwG8NljEkNAjrxgE5CoHPfYv74cEhks8RKOXnEIJsoHhauczO7dX383HGKc32EWE8CJEACbZtAs4W2Uqeog3VXbAXT8X311Vdy6UtVksDr66w++IPDYxFQC1dFFhPPJzMSjQQlEglJt0yFHDiokwzuv4WUxSISgBD7M83DzexE1a0dUwgzSiQSMTe0O8cd55oESIAESKDtEmi+0KrgWOantvuOBXkyzA/72WefydSX1T2sYpoJBeEpVrHVoCi9Y1A9xyqdko6n1VWsIhkNm+BG1bwNqriGojiqwVIpNXn1hHQa5rCeGMJajwVVXDNooefrgajEZb+tAzJy+CATXFq4IjMefVSHlCVlp512ku9///sF+c68KAmQAAk0l0CzhXaDCi2ssWIrmGh+0aJF8r+vBjUYLKN9sQm1XtP6Uxey+ouDauFCODMqvOATiWnfLKxcrQsFEI1sOirhKGRZiwqtYVTBRk1ak3+Y8KJPF3UqvKWBSrlxTF/p0aOHzYlr5xXx4ke77Wb95Mcce6xMmTKliEnw1UmABNoyAQptE7/O+vXr5dNPPpFzXgxIqioliUoVWrVOU35cWEiDofDnR0bTUaphqsKIECn9pZLe2pufXkIx7a/VBmkEUekJAZi/WlIJv99bzw2pGIcjUQl3Ern54DLp3bu3BVZZwyJeUGiL+OPz1UmgHRFovtCqCxWCUmzFhPbTT+WCl8Oyx1C1MrvFJKJu4YS6kSGW0YBasrBNtR8WlmpIN40TXMRaIL4QVniOUaOeZf841lpjVq+mtVS9TahYr91QLQve+0Iu/3FGBvTvL6WdVHWLvFBoi/wfAF+fBNoJgWYL7XoV2mIscB1/qkI7c+0A2bJnmcRKQhJWgVVPsRU1YFVm4UZGhRcYZcFRLkDbF170zWZUdaMRWLwZ9SDDvaxbdj5EVn/a+ZvQSRqWraqQI8qWSHl5uUUvFyP33Hem0ObS4DYJkEBbJdChhXbNmjXSrVu3RrFfvXq1dO/e/TvPcRbt3MS20rlUo4EDKrTalxqGmkIw1QNsYunprATSUE61UHUfLaLwEOtG0tRXhdUsXUgz6j3BxU5Qt9WglUQ8KeurEnJg9D8ycOBA6dxZx+02sWDcM/qXY7GY9OvXLxv5nM/l8N6LFy+2+/fp08cCs/I5D9HYX3zxhVRplPqAAQMkGo3mc1q2zfLly2XZsmX27mVlZVZPoc3i4QYJkEAbJtBhhfaRRx6Rjz76SIZoNOroQw7J6xM8/fTT8vrrr8uWW24pv/71rxs8xwntnMT3JBbFsBuNJIbYqjDCQk1jRA48wGadInrYdkXjpUxIY+pSRonDb4xN1GvxqgPaTh3PEFqtS+o1UiqOG+IpGV3yHxMqJzZ2Up6L1157TW688Ub56MMPs0lGSktLZejQofL7886T/uqSdmXVqlWy/3772e55euz7Q4bI/7v6annjjTdcExPbI8eNk8mTJ9cruPgGV191lbz33nsmsjgZw5S22WYbOfoXv5DRo0dnr4eN2vfFUKZ7773XxB3HL7roIjlszBhsSkNC+8EHH8gpJ58sa9eula5du8p9999vf1TYiVyQAAmQQCsS6LBCe8XlV5grFho2RIWk9v9Dr834idmzZeG771o1ooRPU/Ho1oBl64R2tgptVMfIxnQ8TxD9sf6F01BMvU4QZq3WhnzLNWn17u5QYq+dNVPFDZrwqsjqGvHHGsSsopvWYUIpqdLI5lElH9ew6tyVvmv94IMPyh+vuSY75rn2WN1O2ud73fXXy24ayYuyYsUKOWD//W17/PjxMlv5YEhTXWXs2LHyvxdcsNGh2Y8/LhdffLEOf/IjvzZqITL5tNPk+OOPzx7Jve++I0bI8/PnZ58ZjfIRWoj7SSeeKM47ceuf/yw77LBD9h7cIAESIIHWJNBhhfZdFc0nnphtLlmICiyy+sQWVuzTc+cqd1U1/W/okKEyavSoBr+DE9rH42rRlugYWViz2kdrHmA1Q81AxeV8l3BIlVN3JQVhxZ8AqqymqbgL2qEWuusfUy+0VcKyRT8uopArq5NySOnHUl7euD5auGtH7LuvIMkG3L0XqlU4fPhwE9MXXnhBrrrySr13Rob/4Ady55134olqCK1V6AKCOkLFr5da/AsWLJBpKt5wB6PA6h2nguwKMoaNGjVKvlHBhpv4TB1+8wO9PlzIL730kkyfPl1WfP21NZ///PNZF3+u0OJgSUmJTJw4UYbp88Iyhat78803t/Pqsmg//vhjOfGEE0xkN9N2t912m1nPdgIXJEACJLAJCHRYoQVLiC2sKisqcHUJ6LsLF8oTTz6pQgNpVEFWV/MhebiandDOrtzWhBbjXMP6w+AdWKkaG2WiqYaoGa1h8wnrUCAbV2u3skU0rKKrLRH0lLV8dT8O1dUjJboNcYrrlavVMhwVanwf7Xy1CqeceSZuIFep+/dnP/uZbbvFtGnT5Ll582z3+htusKFDtQVv4tFHyznnnONOsTWGN/1C3b+wdCGIL738cnZ8L1zFN6iFjAIBPuCAA2zbLe5XVy4sbBRY0vvss49t594Xfci33Hqr/VFgB2stagvtf/7zHxNZuJ/xxwBEFn+UsJAACZDApiTQoYUWYE1s1e1pRcUL/ZGj/H5BdwzWHCzKIWrJjj6kZp+hd+LGSye0T1RtKyU6NicYCktIxRRTCphAap8ttqqh33p9zcII5VWh1YVqqOdRRnpGO2wBT3iKkPqOIbEJ09mAxHSdyqRUaNNSlUzIaBVaiEdj+mhhtZ7xm9/oVcX6nk87/XTbbmiRK3h9+/aVmbNmZUU097z77rtPrv3jH63qYe0X33bbbXMP17sNt+6+vriedNJJcvIpp1jb3Pvuo1b4ddddV+81coX2sEMPlRPUkkX+aVjtf7n9dsFzs5AACZDApibQ4YUWgF988QX9veQpmu7DjYyxqLOfeML4QxC/P0SDpkbnFzSFk5zQzobrWNUSeYtDatGaTKqKhtHZquKasWhjXdud1KXshvdoDVzaiJnCwSAEVs9L6MOgfxaZGCHMsJBT6joOqMVdpWbvqPBHjY46RvQ1+lvdLEtwwx588MGy6w9/KOUDB9pz+I+XXeUK3oEHHSRXqnu5rrJQPQKTNDMTyqWXXVavex55ob/55hup0OCkCh0ata6iQi655BI7D3206KtFyb3vlP/5HznmmGOsvq6FE9q99tpL3n//fbs+2s156ilL6lHXOawjARIggdYmUBRCC6hwIf/zn//MCh7qILDw0A6ByObhLsY5rrgUjI9Xe65jiCyijpF+EZYpLFhoJa6PkrY+WnUDw0UMJVVhVvgWLBXQfeQ/xgkJHNPzg/6J0OW0n8axSl3Ho1VoG2vR6iX0D40X5SwVLie2qEPZbLPN5CAV3TEayZtrjeYK3qkaGAZrsa6CPzj2/MlP7BCiiM8+++xsswoV0xvVFf2i9skuU6Gtr9QntIiERiBWfcUJbe7xcDgsczV6HGkqWUiABEigLRAoGqEFbETO/tMiizXkyPpkNfApx5XcmA/ihPYx7aOF67hUf8hhbH20ZtF6V0NmJ4ivyqpVqP6aAENcIagBL8xYxRRWq7qetR6tMc4WZ8DzjH7dpE6/V60XGxX2oo6bMo4W4gkGc//+d8HwF7jMXcEkBZdceqkFMKEuV2hrRwa7c7CuT2iXLFkip6o7+PPPP882h6hDAMu6dLHAphc0CAqlJYUW19tll13kz9o/C9FlIQESIIFNTaCohBawH4dlq2ILiYHI1heJ/F0fJus6rtThPRp1XKpDfDCWNqliiYLMUChxc/tiR++o4ulNGeAZtTiuRrAJagqpG9Wq1ZVVQGhtUxeYfi+hklutSStGNkNocT9X8IcCxtVOf+ghiyBGPe4/77nnLGFHrtA25DpGP/exvnv3UhVq5xmAJXvXXXfZ7RBIdaIOt8lNHgLLerddd7XjLSG0z2nA1/lqAf/jH/+wa07QSOVzzz3XtrkgARIggU1JoOiEFrDhQq6qqpRdd92tyeyd0M5JbqcWrUYc60TvcB2nTSmhlb7SalQx9tAXiy01Tm3LX+m2ttSmFpSMPbMytcIsXoyhVXezWt8pTQ9VWZ2QQ2KND4bCHRsqiA6+++67rcm1Gny0rwYh5QptQ8FQudHD0x9+WL73ve/ZdSYcdZRZzT179rQ+09qZoCDyGOuK0lyhdRHR6Is+WgXWDTlCH/AhGiTFQgIkQAKbkkCzhRZDOyAgxVac0M5Nbq9DW8I6oQDcwDr9neuDNctWrVS1csEHYVKwZzEuFpsZqKtuuNG0JrRo4gqsX22C4UEZHd6T1NyNVWoFjow2fhwtInff1IxOyAJ1xR/+IFtssYW7i61nzZxpiSCwc9tf/mJJK3KFFvW1+19Rt+jTT214D1hASF9Wa9K5a3+ufatIHIGxr0/OmVMjZSSsWQwVQjIKlOYKbe40eRhHe8wvf2lZqPBMd6pVvfPOO9t9uCABEiCBTUGg+UJb5PPRzqn+ngltTGfuCWmWCQsqVsHU0T4mqGbBqpUKwYWoWqYotVZhqaIB+nXRX4u+XG1g52BtkxLoulrr05q3MaVii8xQB0c+kkGDBtUQLj2rwfL4Y4/J1KlTrc1gHSd8ukb4IvIafbRwtV6p4ouIYFifCCQKhUI1LFp38XGabnHEiBGWonKBWqQPPvCAoC8W5dzf/lYmTJjgmsr1aiXf41vJPzvwQMG5eO5/a3TwPffcY6kuXeOWFFpc8ymNOv79735nl99SpxREViy8GwsJkAAJbAoCFNomUncW7QNfba7WXEgTVGAsrWaGsnll1VWs27BcbRo8XWtQshVoKfppE6rAEFhkk0KxxBawgrUOdm44bJItcc3BiKjjtPbTxtV9fPSWK6S8vHHjaJGlCVHDXiCY3U6HE+mzqni7goQTUy+8UEaOHGlVuRbt4YcfLk9qUg9cp66CiGVkm8otsHYhoBDwugrEF0FZKC0ttLgmrPh7VdBRkJEKlrqztq2SCxIgARJoJQLNFlqk9UvnRK+20nNv8tu4qOOZlYOkRAOhMpqIIqRWrXbVelapdcqqaMJyBR+1cGHTOuG1cbLaVA1a66NN+UFULhrZGuqpaJ9SkUVUclwt2iO6LpKBAxs/ew+ucedf/yoz/u//5Ksvv8zyQ+KLnXbaySxSJPp3JVdoMcxm8ODBco1mcnr7rbdcE3NFH6FpGX+jyTBq98Gi0dKlS+UiFe933nknO6wIgo5sUido/+xP9tjD3g2BUqeceqpdF1mdRmgfMcr5558vmLSgvrLHj39saSUnTZokZ/iZr1xbvO9kvSZSRaLkirlrwzUJkAAJtAaB5gut5tHNtYxa46Hbwj2cRXvXZ10kEgvb+NigqmYICqr/wf2qumpuX6SBCsIXrAdUMnWtkosMUVhDkLVgmnj8B2sX3bdJzWyhW8pWq3U7rYKdiMfl14PWN9qi9e7w7RLPjoAhDBFCFiVEG9cutYXWjWfFHxg4t0T7P/to5qW6BLb2teL63HAxh9SK7qu5ijF7DwsJkAAJFAuBZgst3IkYflJsBYKDeVn/+kmJxLptZikYzQmsYgmBzARS0FfbxlIVVHVUE1moZQojFxMFoCAbFNzFOAf/ea28BBZogR/ENq4Rx9VrVsmJO8RtOrvGpGDEVRtb6hPaxl6H7UmABEig2Ak0W2jjGkFaO9tQMUCFyxwu2Okv/1u+2mywRErLzDLUtMRmkaqcGgb0hUIuM/74nZAKKzzJCG4yYfWa2Tn6MbKCjNl+sAuhxbpq9VrZcu17Mn7PHc0KxbR2hSwU2kLS5bVJgASKiUCzhRbWbH1BMh0ZJNyhazQx/hLNfPSl9kUuX12hUcHqAHYC6pmnigBSCXFVq9UsVlDxNmzpTyKAcGW0xCFz5Wp7386VUh0+tEX3MhNYTBOH7EqFdr9SaPExWEiABEig+QSaLbQQkOrquFpoxeU+Rr805nldv36drF2zVirRV61/dMBShYAiQMz1fTpZhXR6xRNfczH7dWibmxLR9tW9jAAr9G3GdAxsF01diB8CijxLufn/AOq7AsZH33TTTXb4QI0QRhYtFhIgARIggcYTaLbQ4pZJTXZfrRZesRUII9zmeP+U/mCyItrVCSx4eJasJ7W1992x3DXaWGtfeCGykGUMTXG/QossnoGFBEiABEigZQi0iNDiUTD0JKHzpbKQAAmQAAmQAAl8S6DFhNaz7pIU22/ZcosESIAESIAEkMNe/Z8tWOBGTWoGo2Lrs21BhLwUCZAACZBAByLQ4kILNtBuBAUhYAhRuJY5Suuyip673YFg8lVIgARIgARIoDaBgght7ZtwnwRIgARIgASKlQCFtli/PN+bBEiABEigVQhQaFsFM29CAiRAAiRQrAQotMX65fneJEACJEACrUKAQtsqmHkTEiABEiCBYiVAoW3nX76hKQqZQaqdf1w+PgmQQIcgQKFth58R4oofJjZAqUtsIbJM2dgOPy4fmQRIoMMRoNC2s0/qBHbOW/+VF5bEdeL4Tn5uZW9Sh7BOQoBxzOl4lfSPVcmkfXYUTKkH4aWF284+Nh+XBEigQxCg0Lazz4jMWytXrpTzn1wk6UipJgQJ2MTwgolwtYQjIcxtYHPuhUMB2Ty5UqaM3FkwUTws3MYWinNjibE9CZAACdQkQKGtyaPN72H6ui91wvnznlktCRVZUQs2mfJcyXj4UFgn39PqTDIj0XBQotGQdJUKOWT77jJsYG8pK43kbdk6kY1Go7SI2/y/DD4gCZBAWyVAoW2rX6ae54LQLlq0SM55ZoMkUprWMhQ0izatYosSVKFFSekk9MFgQCIqtNFIUCI2r21ALV47rJawt07rNayEvIqAhGwXk/MFAxmJSFxGlkfl0N22U9H2BNc7Ib/l9OnTbSrBwYMHN3pO2w8//FDuv/9+2XHHHWXixIn53ZCtSIAESKCNEaDQtrEP8l2Ps27dOvnkk0/krPlxDYbKSLI6rl5jzS3tz1AYinju4bRO7IASLtG+WXUhQ37NQtXJ5FFCJZ6gIhc1SkD7cFFSCe88zKkbVBEPhEISC1TKX4/aVnr27Nlo9/OQIUMsaOtXv/qVnHvuuXaPfBdHHHGEvP/++9b8nnvukR/96Ef5nsp2JEACJNBmCFBo28ynyO9BnNCePrdKklUpSVQmGhTaYMSzcDO+xZtOevvhmCes9QutirFawqFoRCKlAblz7Oay1VZbWWBVfk/qtWqO0I4dO1bee+89u9C9994ru+22W2NuzbYkQAIk0CYIUGjbxGfI/yGc0J49Lyk/HtJPenYrMbcwDFj0zfqeYzVfPUENuDmTfFexm0HJN2zVQvXu7VzJMH01aFn7fUXiulhTWS2v/esLuXbfEikvL29Vof3oo4/kwQcflO23314mTJiQPyS2JAESIIE2RIBC24Y+Rj6P4oR22rItpFfPLhJTF3BYRTWFwCgtWaH1dr0IZBxwQuvX+x7jOoUWzeMaTJVUNY6nU/L1qnUycfPlMmjQIItexvF8S3Ms2nzvwXYkQAIk0JYJUGgL8HVWr14t3bt3b9SV8z3HCe2sdVtL51hEQkhMgZ8TUM8jbMN78AB+tYqm9zh+16yGOPnFr4c1jOIsXRjEJrSJpGyoSsiYLp+3mNBWVVVZQFckEpF+/fpJSUmJd/NmLtevX2/913379rX+5GZejqeTAAmQQIsQoNC2CMZvL/LQQw/JBx98YBG2Y8aM+fZAA1tPPfWULFiwQHr37i0nnXRSAy1FnNDOqOiv1mxYQgHtRy2Q0KZUdTFut7I6KWO7Lmm20B511FFy9dVXy7PPPmtJNfCiENvDDjvMAqW6du1a492vvfZaueOOO6S0tFTefPPN7DGMI95zzz1t/8ILLzRuf/rTn+Tf//63pFJeMFevXr3kd7/7nYwcOTJ7HjdIgARIYFMQoNC2MPWLLrooe8Xhw4ebiGQr6tiYNWuWvP322+ri1d5U7Rw944wzpEePHnW09Kqc0E6v2Fpi0bBEAyET2mzfq2/RBn1LVQOOraT8Nfpfrfj7/p7oSB4rfteuJHUPWahS8ZRUxRMyrnvzLNpRo0bJq6++Kt988427ZY01hPO2226TkEY5uwJRvvPOO21Y0bvvvuuq5euvv5a99trL9g899FCZO3euwEquq1x66aUybty4ug6xjgRIgARahQCFtoUxv/POOzJr1kwLKMKlGxLbV155xUQCAguhHTZs2HcKc3sVWof5wAMPlNGjR8s222wjr7/+ukybNs08ADheewhQPkKL8+CmnzJliuy6667YVf6z5Pbbb7c/FPBHy7x588wqtoNckAAJkEArE6DQFgD4woULZeZMiK1nJtYltp4gz9K7w5JNNyjIuY/ohPbh1f3UotUsTzrWFeNjPYepSMw3YTVfhRUdoWMl6RJTeLuaNcozaRH0hILkFigJv5O2RJ/L8ioHUlKt/bRHdm6e6xjXHjFihNx88832RwX2UVasWCEYL7t8+XLbnz9/vrmCsZOP0KJ/97777hMEXeWWCy64QB5++GGreuSRRwQJM1hIgARIYFMQoNAWiPq3QurdYOjQoeL6bHEMQowCS3boMD12WH79ue1VaNHP+uKLL9YZtfz000/L6aefbjxuueUWE2Ts5CO0cCHDeq1d4KaeNGmSVaOvl321tQlxnwRIoLUIUGgLSBrW2fzn53v9nxBUFdvy8nITWeuT1XsPz8NdnPuITminr/X6aENBr4/WN2A1Atlr7bpi3TqbalGfA8VNL+CClBNetYT8E1wfLaxts2jLPmtWMBQsTqRjrKvk9rlCcCdPnmzN8hFatHUinXttpKk86KCDrIr9tLlkuE0CJNDaBCi0BSYOyxWuZBTnSobIQteG5Fi51iCPRXsV2iOPPFIuu+yyet9w9913Fwxx2n///eWmm26ydvkI7dSpU+vMg7x06dKsZUyhrRc7D5AACbQCAQptK0CeqcE5C9Vd7AoEF4FPzpXs6vNZO6F9aJWOP9Wo41L9WR+tb4m6KGPX1+obqtl+0ey+s3z9zt2kn0Eq6vfVonvZ+mh1+j1YtOPKmtdHm6/Q7rffftaPCxYU2nz+RbANCZBAWydAoW2lL5Rr2eYTXVzfYzmhne4HQ8V0dh6Mo/VjmrKJKxLOl+xfyA3bqS20mvjJigumijoBVqFN6fCehC+0Y5sZDJWv6/i0004T/FAotIaBCxIggXZOgELbih8QQVAY7wk3aVOLE9oZ6/qbRRvWTlkIbRqdqjlFh9dacX2wLjOUb/hmM0Y5AXYpkTX/hRW0h9CmNN9xVXVCxjdzHG1DwVDPPPNMVlwRlQyrFoVCaxi4IAESaOcEKLTt7AM6oZ21foAlrAjrMB1McZcpgNDCdZxUxa2OJ+WIrs0LhgLm3P5Xhx0JLA4//PAmD+9hH60jyTUJkEBbJUChbatfpp7nckI7Q6OOS3QcbQwWrY6lda5fF3XsLFhnobp8S67etavtYnb1mhBK0xmmBRPKV2tmqCOamYLRvc7BBx+cTVjxxhtv2Ow8bs7Z4447Tn7729+6prRosyS4QQIk0J4JUGjb2ddzQnvH4jKJRkJSEtKJBTQCKuVPz4MJBlD86WfV2vVeUKdw9+u9zlvM+IOS8HMzOpdyOOwd1/gnFdqMBkQhGColJwyoaNbwHmSDQj5nDOWpq+yxxx42HraxKRhp0dZFk3UkQAJtiQCFti19jTyexQnttFV9NAdwWCd91zGxatGGfOH0dVYtUe9irq/WJYZyOZADfnjyt7P1eFLr5qVNadgxLFpMGA/X8dG9vmqS0CIrVmVlpRx//PEyfvx4ufLKKy0lonvVsE6Ii3zFsGS7devmqm19zTXXZCcVQD5oVzCpAIQZBbmlMVlB7bJs2TLZe++9rfryyy8XTCLPQgIkQAKbggCFdlNQb8Y9ndDe8rFOKFAS1WCljA3vcS5fpGRESfs+4qB/IOUraCDlHQ/4GSv8LJHZ4Cj0y9r5usI2TkvE43LaTqkmCa1drNZiw4YNsmTJEhtytPXWWzMPcS0+3CUBEuhYBCi07ex7QmiR9ehP72Uk1q2n5joOmWA5SzUd8IQy6GeAyviWbsirtjlmc185O9zHn77Hb67z0mquY1XhRLVGHa/5Rs4YFpLy8vI6UyjmXo/bJEACJEACNQlQaGvyaPN7sAa//PJLuf+5hbK02w4S7txFn1nlUl3F0NaML7TIPmXFCa3fCZudXMDfd80CTmjV4IWVm1Ghzej/Va1aK33Xfyi/GDFEMKF6p06d2jwjPiAJkAAJtCUCFNq29DXyeJa4unGRqnDx4sWCNIPLV1XIBh3n6sbB5nEJr4kfJOXHUG18mup0p5KI9OrRRfr06SMDBgyw6eii0ejGbVlDAiRAAiRQLwEKbb1o2uYB9Jsi6QVcyGvWrLFAo1RKY479vtWWemqkdUQEMBJNdO3aVbp06SKxWMz6g1vqHrwOCZAACRQDAQptO/zKENVkMpn94RUKIbS4LqKC3Q/iy0ICJEACJNA4AhTaxvFiaxIgARIgARJoFAEKbaNwsTEJkAAJkAAJNI4AhbZxvNiaBEiABEiABBpF4P8DAAD//6+/CBsAAEAASURBVO2dBYAV1ffHDyohIKKU7QJ2Yfu3FTuxA/tnB3a32I3dimKiAnY3dnehoBg00rDB+5/Pfe/O3p2dt/vevt1l4xzdNzN37r1z5zvDfOfEPdMipSImhoAhYAgYAoaAIVAnCLSoC6KFu8vmzpW5+pdiCZfrX8To4XqdnJZ1aggYAoaAIWAINAwEap1oS0tLpbS0TIm2rGGcoY3CEDAEDAFDwBCYhwjUGtGixZaUlEpJack8PB07tCFgCBgChoAh0LAQqDWiLS4uMZJtWNfWRmMIGAKGgCHQABCoFaLFXDynuLgBnI4NwRAwBAwBQ8AQaFgIFEy0mIznzCk2n2zDuq42GkPAEDAEDIEGgkDBRFtaVqZEO6eBnI4No64R4MWqPqVFixb1eTg7liFgCBgCtY5AwURbXKK+Wf0zafoIMF2LP8RN3YqRLqQYErHfTiJLX8/XCdGbb775xLdhnT8TQ8AQMAQaKwIFEy3aLFqtSdNGAGLFFz9pdonMSamWqX+pFinR/1lN/7ARE0pauApK0GinrkALM1W9vuo2XT/pDqjaqsVc6dSmlSywwAJGtjFcbdMQMAQaDwIFE+2s2bMjLafxnLaNNF8EINmZM2fKhJL5ZLsN1nI++TRJthClXP1Pt9BwlSEd33oGTm/o4dLMCuemi3Rlrrabj150n+5ooTtSLHUbLfblj7+Uzi1T0q5dO5l//vnzHbLVNwQMAUOgQSBQONHOmpXO/NQgTscGUVcI4B6YOnWqTC5dQLb7v7WkQ8eFHbF6E2+F42ZIFvpVI7BgbIZO+XWUrGSaUmuw3nxp1oV9kTTfutUpU6bKKx99LovOXyYdOnSQli1buvLm/DPk6ad1Cl2prLLKKrL66qs3CSh++eUX+fLLL52rYM8992wwL1S//vqrPP7YY7LiSivJPvvs0ySwtpOYdwgUTLQzlWi9v23enYYdua4RgGgnTZokk0rnlx03WU8WgWjRXucqkSqxZqjSDQPdFdNvtAGDuhoZJk2rtFqGBos/lnLdxBWbYeX//vtPXhz+qSyyQJksssgi0qpVK93ZvGWD9deXYp1Gd/Ahh8gpp5zSJMB44IEH5OabbnLn8v4HH0jbtm0bxHn13X9/+fHHH91Y7r7nHllvvfUaxLhsEI0TASPaxnnd6n3U+OInT54sEzTAfNct/k+JdhHHiW26tZFu63eWP58bLV037abjSsm498ZLt027yuxJs2XK91Ol6yZdZeqIqTJ7zGyo1Wm5Lo7KEy6kDNHylynjWM+/+6F0btVCOirRtm7dWnc2bzGirb/rf0DfvvLDDz+4A95z772y7rrrRgcfO3asPPH44257hx13lOWXXz7aZyuGQBIChROt+u14Ppo0bQTQpNBox84olj69N5VFF+2kJzxX1u+/rkz6aZIUTy2RTisvqmUp+eejsbL4hkq6qp3++/FYWWjpdjL6zX9kzhimganZ2PtyIVVipOZLa7aOaZV08dNOnjRRhr05XBZr19JptEa0Ika09fdvbMSIETL4iSccie4dMx1/9dVXctihh7rBXHb55bLTTjvV38DsSI0SgYKJdoYSrUnTR8AT7V9TZshe226p5NdJiGPqdcYaMvGniTL19+my4j7LOY30p8dHSM+dltXyyTLl96nSY4ci+f2lUTL1u6kuUhmy9UosyDlF1q/oErPzhIkT5elX35KlF2kvHTt2NI1WcTGi5SaZ92JEO++vQWMbgRFtY7ti82i8nmhHjf9P9tlxW+nUuVPaD+vNGUqOejMpaUKhGXFsGtFomlB1000LypCtBh6X+3O1vlN2teaEiZNk8IuvSfcuHQsmWvzLo0aNkjZt2shSSy2lxwvG6MeaZTljxgz5448/XOTzEksskXNQFtOh/v77b5mtUfnLLrts3j7mcePGCSbK7t27S/v27d3o6ptoC8EtC5yVirP5aDn/8ePVBdGtm3Tu3LlSu6oKJkyY4KwvRUVFibiDK9aZnj17Ju6vqm/2GdFWh5DtjyNgRBtHxLYTEXA+Wn04/TpmvPTdZUfp2qULs3McSToqzfxAtI7GdNsVOVIL444hU62h5mInaWetW83EJLv18ePGy2PPvSTLLdGlxqbjTz75RG6++Wb55eefo6QqCy64oPTq1UvOOfdcWWaZZdJj0F98wltvtZXbPlf3rb7GGnLtNdfIZ599FtVhmtFee+8txx9/fFbCJYr2mquvlu+//96RLI2JmOahfsCBB8rOO+8c9cdK/Li8BDz00EOO3Nl/8cUXS5/ddmO1So32p59+kmOPOcZFhhOlPejhh91LhWuY508+uNH1SSeeKMOHD3eYDRw4MPFoxx17rHz88ceyzjrrCMFFXkKiHf7++/LySy/JnXfdJROUZL306NFD+ukxtthiC1/klnHs2i+0kNyrfWP2RZgSxvU66aST3EvWM8OGyW233x71zXVZaeWVpf8ll0iRvtCEcoveN5wL9wvjQp579ll3PXzSFl/fJ1S58qqrZNttt/XFtjQEIgSMaCMobKUqBCBaIoF/HPW3HLj7ztKlW1dHqRl3qzJuRht17Br2lKZeR7VaGSKhCn9wrZ/Z41pktuHmcWPGyaBhz8nKyyxRI6J99NFH5frrrovmeLvjOlJPj43o1hsHDJD1NZIXQQvaZuut3TrTOZ5//nk3b9gVxH6YhnL+BRfESkWef+45uUQf2sw5zibHn3CCHHHEEdHu8Lhb9u4t77z9djRmKuVCtJD70Ucd5a4PZvY77rxTVtJpKTWRfHHjGMcfd5x8oBHDq666qjz8yCOJhz3qyCPl008/lTXXWksgVy8h0fY94AB5NEt7SJPzCqN/Q+x2VD/pa6++Gr1Q+f5Zsq+nkvUtt9wSFkfrXbp2dWNacsklo7Ibb7xRHnrwQafxfqwvbMiwoUPd9Y0qxVYuv+IK2VGDo0wMgTgCRrRxRGw7EQFvOv5mxCg5bJ891KS3mNabmyZO2NIxLk113UU4UZZZd2WsY1rORB2nqdaV0SY0OlPz3zFj5MEnh8oay3d3RJvP9B7Mtb233FJm6dQzzL0XqVa4lj7geTC/++67crVqHgRkrbX22nL//ffr0SoSrSvQHwi1t5JfVzVfoo09puSNORhB6w2DZHgRIShmoh6DsZ6s02/W1v7RftD2Bg8eHGlSb7/zjiy8sE6PUgnJgm2CvvpqxCuEhGaKqdubTpNMx8z3hMR4CeqkJta7VBtEe66J1AQ3jlNbREtfndVSwvlvtNFGMmXKFHe9IF+uFy8Rj+g14JoicewgSjRfCJ+XjyuU+LgeXpgmduppp8maa67pzPK33XabfPnFF273cWqlOFJx9JJEtC5hi/b33XffyXl6/ZGTTj7Z3SOsd9GxowGbGAJxBIxo44jYdiICEAl+rS9/+kUO77uvLL7YYkqOGTOxawFVQplMhkU1dRtuMZ/+ps3FSqiq2kKkOgE3XcFXdEstyqi4/475R+5/9ElZa5UV8tZo31at8BR9ACJXq/k3bs57TBMRvPXmm27/AJ3DiXYbf2ijXZ1xxhmujv8Z+fvvcqCaf3ngQoiYFEkPiWAqvkk1ZAQC3mabbdy6/3lYTblo2AiatDeDhsfFh3z7HXe4lwLfLlzGiRYTKSSLCZWXAUi2qKgobJLXek1w4wC1RbSYcu/TF594Mo577r5bbleTL7KbmtF5cUJC7BZSszHmcvzhXr7++ms5VOccI5h3H9MpOSussILfLfjft1NTL8vN1Sw9IHP9qJBEtL6h+Wg9ErbMFQEj2lyRaub1nI9WH+iffP2tHHXwgU6rcHkmnKKqP27+axqktHbq6NQVwLmQreq/bglBp0maPV5YL2/z9z9/yz0PPiobrLV63sFQaK34DZHDDz9cTujXz61X9RM+tNGMhj3zTESiYbtBgwbJDddf74qefOopWW655cLdWdfROLfM+BiPPvpoOUZ9lkh43C1UC+cBn01Cou2z665OA+PlBw0Pv2do+szWR1XlNcGN/mqLaNEo0Szjgja7/377yc/qa19ZfaqP6osSEmK33fbby1VqqQgFa8Jmm27qiDSbWftQnabztU7X6d69uwxR07AXI1qPhC1rAwEj2tpAsRn0UZxJWPHep1/I8f87TJZcWs13jif1x3GkkmTElRAmGqsKGmo5f6aL9DcsclZndcymqTi95++/R8vt9z0kG6+3dt4aLSZH/K1EzSKYYXfYYQdZT5MOEPSCvzYu1T20ff1QS7r0sssqBTf5emPU9D1RpyhN07SV06ZPl+nTpkn//v3dbny0+GqR8LinnHqqHHzwwa486ccT7aZKHiRToH/kpZdflsXUwhAXNLTff/stXhxtg8O1qmV7s3xNcKOz2iJaTLkbbbxxNL5w5XLF+il9sUHrJYMUyxA7TMIHHXRQ2MStY80YrxHMu+qLySUZ/MNKZ555pvPtFhUVyVANlvJiROuRsGVtIGBEWxsoNoM+vEb7zgcfSb+jjlCiXdopsS5nsT9/JVpPl86A7Ik3zaTpWtRR7ReNNsPUlciYfX+N/lNuufte2XzDDaRTp04RGfhDVbd877335DQlLk+2vj59ba+kiwky1EbDh3bcX+fbssTMuEmGDIgiPv3006Pd05RMSSf4nvpkxyrRZpNsREskdFV5dT3Rhv1iun71tdfcy0hYzjrE892338aLK2y/r+bvthpN7SVf3GhXW0T7igYzddXApCR5XM2++NaRwU8+6RJJhNcsG3aeaPv06SMXa6BaXIxo44jYdl0gYERbF6g2wT59MNTrb78rJx9/jE6NWTZNlY5M04zKLwLZ8ltOuuW6anpPulaaqVnPEDSaplYgGvnPv0bLDbfdLttsvplmoVo0b6KlTx7ERA+/+sorwvQXl5GKHSr47PpfemmU1Sd8aMcjg9Mt0r/ZiHb06NHCFJa//vorqg6pE4DDtBMCm97VICikNomW/pgyw5QY7y+mDLlT/b1//PlneiPhF42WqGav0foq+eBGm/om2ic0sAxfa3jNjGj91bNlQ0TAiLYhXpUGOCav0b706htyxin9HNFWGGZkIs4EOTlGjWutmX0ZInYLl34RUlYpZ2E3j/S6ATfLjtttk7ePtsK4MhvT1XzL/FDS6hFBjEA0b771lus/fGgn+fsy3cg333wjh2TMu5cqUe+8yy5uF5qsn7ZCINVROt3GRxZTAc16/Uxi+tog2rc04IvIV6bVIPtrpC7aWW1LdbhxPE+0kB8kmCQ+SX9V03sKMR0b0SahbmUNBQEj2oZyJRr4OLxG+/wLL8kZp58q3YuKHDnCjeXBT2whaeL0W1R01mMtiPjY1aOGo9hMBSqmi0ZqJqdrrr9BdtlxhxprtO4QCT9EBw8cONDtuUGDj7bUIKSQaKsKhgqjh70Jk44I1kFrRvvGZxrXEiF55roihRKtj4jGp0ryez/lCB/wLuqLrCtJwo1jnXXWWc5qwPQbXgDiwrziLTbf3JndqyLaXIKhmB9M9DASXrN5RbRYBHxCkfh527Yh4BEomGiZ6hA9UH2vtmxyCHiNduiwZ+Xcs8+Q7t17KnlqHDEJjzM3AJTpdVYHAAVJN4eWkYZxvkwMcsW69JeSkX+MlCuuukZ277Nr3sFQBLJ8rhmdmNN4xZVXuvmN7hiZHzIE8YBE7tKpIyStCB/alMf9r5SNGjnSTe/BfAyREpTjzbX76pQe5m5iIn5RsxuRRcoL2ixThUhGgRRKtOFn8phHe7D6YpkDy5ju12QQRNjWRGqCG8cJk048oC8wzFMNhelUZMtCqiJaApwY/2qrrRY2l3v16zm33XqrK8s2vac+iZapXAeq1QLZa6+95Lzzz3fr9mMIZEOgcKK179Fmw7ZJlXuiHfzU03Lheee6TDtoqV6tddNftQBzbHpddwX73YbjUNV2M+XpBb90oxOAtL3XeH/XOauXXna57L33XnlrtKTKu/DCC12/q+kH0vtphC8pFekfU+tVSr5E7KJ9EkhE1qE40dJ4b03f17t3b5dvl+xAJE7AF4ucqVrc/vrNUi9E+D6Y0ZK33W4715bUgT9qdPCDmmGIrEheapNo6fNl1aDPOfts1303jT4muxPnlq/UBDeO8aFiepxmh0KYagTpMQ2H+b2v6Ngg4rKyMre/KqKlAlmamKu84YYbunSSBGcN0pSUTNVBYybzlJ/GFF6z+iRazouEKAhjOlyjyPmM3jIaIBgGlrkK9mMIKAJGtHYb5ISAJ9pHH3tcLrnoIs0+1KNSuyoUWKVRlFtqpHVeVzciYt2aT8sdQ6e7HfHbCLm4/6XSV02y+QZDMVbMkN+qP9ULwU9hjloSTlyo5+FT5oUP7d13311efPFFoZ8kCbUqvx9tFwL1U258uV9CvgRlIbVNtPTpp6OwTkYqNHWvbVOWi9QEN/oF13POOSc6v/ixIP+FVdNH46+KaNHUSXuYJLwMkczDp8ykTnjN6pNoOfYROj/7888/ZzUSS8EYQWErMQQKJlrS3M11qk2sZ9tsUgjwECbpwkODHpLLLukvPZcjzZ8SpJJjC83ylCZRrL7KnqrV+gQVaULNaLrpFg4Xp7mmlVlnXaYe4upryYgRv8kFF10oBx14UN6mY/pBg7r/vvtcEoIx//5LkRO+hLPKKqs4jTRMVRh/aGO+vE7nmPoUfTTGFL2HpmU8UZNhxH2w7P/nn3/kYiVvMgf5aUUQOhrakeqf3VjTCjIuAqWOzWiAoXZ03nnnuST49JUkG6mWx7+3QzXJAqn/QqFfgpJ8oFdI5mG96tbzxc33hw//Sk15yNSmMO0hxAgJX6lWBPzUvASQ/ckL2v6ATJIOTPEvvvCC3KGESiIOL0VFRS61ItaFUHLBjvnTXH9ennixisvZaglA68b68PSQIdFu74/mmn/w4YdRuV/h60KMnfHy7wLBTcHxTAyBOAKFE636hkJNIX4A224aCEAcPPwGDnxALr/0MqeXoqWm9dP0OaZJUtd1JaWf9pmvhdZwORdbaD3IlgZa5mzHkTqbbuAap83OrNLJBWqiPuSwwxzRJhGbq5bDDz5VAobwm2LaxLwdlzjR+vmsRN3StrX6P5fQjFG5jAPSwcQ8v2rRS2quYnyPjVFywS3pvMCL2I3FF188+sRfUr1sZbys/avkSLAXU6TIIZx0zbK1r89yAr1cnIqOOYwyr88x2LEaPgIFEy2aTqm+TZs0bQQgWh58L6lJ9a/RfyltKnVmNFLHkZ43nU6aoV+3Q3FhOVd/lGCjarqCVkssFYXRHlcBUp5PltbP2KEh8ACra7LKRrRN+6ra2RkChkB9IFAw0RbrA9ibyepjwHaMeYMAb+6YLTGTTdW0glxzLBku+MkxbkSh0QAzHOq2/Xq0VK0SzYWJQGmSjZq5PtEcO2iih46a8IGk//jo6lKMaOsSXevbEGjeCBRMtGiz2YJGmje0TevsIVX8d5At19u7C5xPNjjVcuLVQgg4NNNCrBBsUN+tUq5mVke81Nft+RdYwH0hBx8nQT0EM9WlGNHWJbrWtyHQvBEomGh5OM6ZUyxlc8183NRvJciVP0+ujmwDkgzP3/vUIvLUnb4dhmLsyZ6U/ZL2rPu2LCHYuiZZjouf7dbMXM3tNEK4V69eFJsYAoaAIVAwAgUTLSPArDhHA0BMmj4C5WRZP+fqSbd+jmZHMQQMAUOg9hGoFaJlWMXF6qstTX+WrPaHaT0aAoaAIWAIGAKNE4FaI1o0nZKSUiPbxnkf2KgNAUPAEDAE6giBWiNaPz7MyKWlZeaz9YDY0hAwBAwBQ6BZI1DrRAuaaLdlPnCGpW4TSRpFm4brzRp+O3lDwBAwBAyBpo5AnRBtUwfNzs8QMAQMAUPAEMgVASPaXJGyeoaAIWAIGAKGQA0QMKKtAWjWxBAwBAwBQ8AQyBUBI9pckbJ6hoAhYAgYAoZADRAwoq0BaNYkQCCd5CkKdiODIlmfTAwBQ8AQMATSCBjR2p2QNwJElZOx6b//Jmvb6DMB5E90nwggvJzP4pXpNC8Xga6JTGZp5rDuyxa5Y/n2eR/YGhgChoAh0AgRMKJthBdtXg/ZE+Vs/cAA399J6efv+MRsyn0EXj+g575Fq2QL4WoO7LKSMikpK5Hi2XOkc9cu7mMBvo95fS52fEPAEDAE6hoBI9q6RrgJ9u9JslQ1VaZIO1HF1pGtbqDjMnfa/afzqMvK5rp82LP1qz/Tp06THsv10Dr6MXjdVx8fDEgP0H4NAUPAEJg3CBjRzhvcG/VRPdFCoPhk0Wr1RtKvuOtpZYiXOvxBu3PnampOTc9ZXFIsc2bNllat28iiiy7iMDCybdS3gg3eEDAEckDAiDYHkKxKRQQ80Toy1V2OX72rNqgaka3ybUmZEu2c2fpXrETbWlrqh90XbNPG1TayDUCzVUPAEGhyCBjRNrlLWvcn5Ik2rb7CsHFJa7JOoU0bkGVuWUq/8DRHZs+eJQsuuKDz05ao7xbTccuWCzjt1z6JF8ex4vbgwYPVMlAiq622WpP5Xu5PP/0kn3/+uQuu23fffWX++eeveNLzaOvnn3+Whx9+WFZeeWXp27fvPBpFwzrsF198IT/++KP7t7vXXns1rME18NEY0TbwC9QQh+eJNk2nfoR4ZPG8ZkR3UuIkxQfjRcp0OWumarWOcGfKrNmzNTK5VIm3rRQVFakvt6zBPGj9aTSk5RprrKHYFcv//vc/OfPMMxvS0Go8lnvuuUeuv/56154Hedu2bWvcV2023GOPPeSHH35wXT744IOywQYb1Gb3jbKvyy67zL18tG/fXj777LNGeQ7zatBGtPMK+UZ8XE+0jkcjZi0/oQoErBtM9dEbTYmWKT/qp9VvF8+ZUyKl6rNFQ+OLT5DvSiutbAFS5TBWWjOirQRJnRXsueee8v3337v+H3roIVl//fWjY40ZM0YeeeQRt73zzjvLiiuuGO1ryitGtDW/uka0Nceu2baMiNYh4FRXN4e2MvGyj+k/WhE7sv7pr9Nc059TLHXrZWpWLlMfbplOAVp8sSXSYcvNFt3sJ25Emx2b2t7zyy+/yKOPPupIdP/996/QPZq3Nydfc801suuuu1bY31Q3jGhrfmWNaGuOXbNtGREtrFlJow1MyNF+LYNtdf5PSkkVHZc5tvSDuZhgqDI337ZUOi6yiDOPttJgKZOKCBjRVsRjXm0Z0ZrpON97z4g2X8SsviPIdBYoBcORaZpR+UXKuTddTpnbl9Fo0WyppaktXJCUOB9umZQq+7ZcYAFp1bKl7i7vhfaFCObp33//3QVhLb300i7wJtf+pk+fLqNGjRL8UksuuaQGbunYchBeHv766y+ZpUk9unfvLvm+OIwdO1YwUfbo0UMWWmghd8T6JtpCcMsBIlclm4+W8x83bpwstthi0qVLl1y7c/XGjx8vEydOdNgl4Q6u7F9++eXzvi4coDaJlvuE8XKu3F+LLrpoXueKZejXX3917bp161ap7WyNgxg5cqR07NhRFl988Ur7kwpow73LSzCxE611lgBiGm0SWrmVGdHmhpPVChCINNqgLE24QUE5x7rCmbNKZdy0KTJq7H8yfsp0GTd1hsycXSKn7baJarNamf/1oYM+7P9hB73VaPWjjz5ygTZEtkIaCBHPa621llx00UWy7LLLRv1OmjRJNtlkE7fNvl69eskVV1whn3zySVSnXbt2st9++8nJJ5+clXA51uWXXy7ffvutRljPdm0h5+WWW04OPfRQ6dOnT9QfK/HjEnl9//33O3JnP33hL0SqIloCdwiSmjp1qnTo0EGefPJJ4aWiJpIPbvR/zDHHyLvvvuswe+yxxxIPefjhh8uHH34o6623nhBc5CUkWgJsXnjhBbn11lsd+fg6PXv2lFNPPVW22morX+SWcex4Ibnjjjsc8VCBCGau1+mnny5tdCrZ008/LTfddFPUN9dllVVWkSuvvNKRctj5DTfcIPfee6+7X4iKRoYOHSrnnXees8CEdX3SFYK6dthhh3BX1nVI7K677nLm6QkTJkT1IMN1111XzjnnnEqke+mllwr4du7cWV566SU599xzZfjw4TJjxgzXnvuZOviTIcqrr75aXn/99fSLsdbo2rWru5dOOumk6HjhyuTJk+Xaa6+VZ5991sVNsI9z23bbbR2GAwcOtGCoELA81o1o8wDLqqYRiBNtOaemZNS4/5RMJ8uEqdNlvJLpjNnFUtRtURky/Bun6ToLsnaDUtt54XYy4EiIR+lVSdZpsbpjftVq48fIF3sCWK666qrooQiB0acXoltvv/12+b//+z9XhFax6aabunV8cs8884zMnDnTV6+w3GeffaR///4VytgYNmyYnH/++dFDqlIFLYCkISYv4XG33nprefPNN6MxUycXooXcIfH//vvPaS4QNQRSE8kXN45xxBFHuAc+046eeuqpxMMecsgh8vHHH8vaa6/tyMVXCon24IMPFo6fJJAm5xVG/4bY7bLLLvLyyy9HL1RhH+zjRefGG28Mi6N1CAh/7FJLLRWV4XvleGjE33zzjSvn3Li+2QSS4li5yIUXXihM18omEC73J9OLvPAC+MQTT7hrDI7cK3Hh5QFMzzrrLMEqkCRHH320nHLKKRV2oRnzMsQ1ShIw4phgbFHHSQhVXWZEWzU+tjcBgTRh6VQeci4GhmKqnnDnMJmsBOsoTa2/nTu0l81W6y5DPvjWaa3Kd45k8dd26bCQDDgqHUiCJusbzTdfmhRrOq8WTXLDDTd0ZlvMcZDVOuus4zSZt956y5nAOAfKfPRo+ND2pwyhbrPNNoJJDm1s0KBBTlNgPw+9MEhmjqaXRONCO+HhfMYZZzjNBNMg2h4Pco6BoDFiykPix0Wbh3B4qC288MJOK/Wm0ySNlvmekBgki6bzwAMPOJOo6zzPn5rgxiFqi2jpi3Pl/LEuTJkyRbhekC/XC8zQSrmmSBw7iBLNd/XVVxdePi655BJ3PVxl/VlE/f9nn322wxbz8YABA9wcXvaj5R177LG+qiQRLS9eHBPi5foiaMvcIwhkhMWkOoFAb775ZldthRVWcIFVaKEEYL3xxhvy3HPPuX1o8mj4XjzR+u0DDzxQdtttN6e5c39hxQiFIC00es77/fffd5o7mjT3GFr6AvpC68WbhdleddVVXTv+fTAmxsO4vBjReiTyWOoNbGII5IWAkke6fmbBRnp1bqrfncNS+1/zcGr/q9N/J941LDX4va91e5CW65+W9736Ebfsp/tcW/rjf7Uhl+k6/UfHcDXy+1FzWUqnXLi/F198sVJjfXCn9GHu/tTs5varjyxqQ1sl50rtRowYkVKzs6unpJdSc3RURx++UZ9q1ovK/YoSYNQ/4/MSHlfN1Sk1n/pdlZZKIK4PNQm6fUqyKdXIXdlmm22WUj90pTb5FNQEN/pXTciNQU3cWQ8H3uCqLycV6tx9992unH2qEae++uqrCvvZuO2226I6ai6N9ofYqbk1NXLkyGgfK+pLjdqpZpjSZAsV9k+bNi2lLzSujpJshX1gzJjAPC5KUlG/avmI765yW7XMqK1aUFJK3JXqqzYa1dEXvGi/asFRub5EROV+RV0H0X59caj0b0jN5tF+dTX4Zqk//vgjKt9iiy1SapKP9rGi5JzSl6mojhJwhf22UT0CvCmaGAJ5IVAVCZ5w51AlUshUifaaR1In3jU0NXj415kyJVhIWP/66t+JWteJkmxcqjpGvG58W01q0UNBfW3x3Ynb4UNbNdMKJBo2UHNi1DdEl6vw8OLBzZ9qM1Gz8LjHHXdcVJ60EhKtBsCkVGt3/fXu3Ts1evTopCZ5ldUENw5QW0SrGmbieLkX1LftznX33XeP6oTYqSk0KvcrEIQn0mwvAarxuX7Vt+qbuWVdEW34MhO+cIUHV03e3SMQ46effhrtCon2t99+i8r9ivqU3blwj7399tu+OFqqVhvtD19AeTH092ZSOzpQi4l7EaKeEW0Eac4rZjrOQ/u3qmkE9O4qj9x11uNyE/K1Q96RmZqQgphiSrsu3F5WWqqrvPf9SLftrM1antIEyV07tJNjd9gwEdYKx0iskb0QMyr+Vh8AhRmWxAL494jiTTJJh2bIHXfcUQiGSZIvv/wyMhkTbBIPbvJt/v33X2e2JDhJNSf3d8EFF7jd+Gjx1SLhccn2REBTNvGm480331y+++47FzlLXcyrSRGl+AxVC8/WncMBE6aPzK0JbnReW6ZjfIveTx4ftDeb4oMk6pdliB0+ycMOOyzeTFTTdxG9StDOdBqvwHXA70hkOAFGXpJMx35fIVHHBGMRsIWELgTfd1VLjwFBeT5AK6yP6djfY5h6vYnd1+Fe4N8BQuDWTjvt5Na519Wy4Nbx0eKySBLudVwVZjpOQqfqMiPaqvGxvQkIhCRYTrHpine89KFGFauPNkPGbVu1lM3X6Cmf/jraka/LXqF+WhyyC6qv6NDea2td/L3p9vSnBW4jiRDTtar/1Tdz6devX0S2vkWnTp3cw4ZIXvxjXsKHdtxf5+uwZLoPUaEIvlGiQ71AqjzA3nnnHTc1x5fHl9mIlgAZnwgh3oZtT7ThPvxs+ICTpoXgY/aBPGGbcJ0HNg9uL/niRrvaIlpwS5qiwjHIO4wfESFQTTWrCkSbDTtPtKRUJIo8LvVNtB4r/Llct3zEEy0+V2IG4hISLYFSSyyhyV8CyUa0Rx55pLz33nvOx1zVmPBL4681og1AzXHViDZHoKxaOQKeRMtLytf63fWMTNKI4zRVEgzVTjZbvYcMHf6dlmUIVKuzRtTxzUfvlmlMCZFSmUWoNWdq5LuAPHkoq5nMJUNn3F6YtkBUss/qExJtPDLYt2GZjWj//PNPF7WpJtyoOqQOATLtBC0BzROpTaKlP6bMEAQVBrdQfsstt0TThNiOCy8ykI/XaP3+fHCjjSePQqOOcyVaortXWmmlRkm0XHteZghcY2pOPjKviRaLC1N/jGjzuWqZuvrwMTEE8kIg7j9Nu1jTv/3U7+oCodQ/y5LtwcO/iXyzaR/tIOez7af+22wSP0a2ermWq7aZevXVV1M6DSbyR+nDOgr8qM7f54+jpuOovc6r9MWp6667LionkErnJEb7WNGPAUT7dZpJtC88rkZAR+VJK95Hi58Mn6/3jbKt2l5Sk4LLqsONA/hx6EtL1uPhW2WcVQVDqTaVtb33TxIwBZZILtgRcMRx1fKQ2DdBQ+zffvvtK+yvKx+tvvxE94FGqFc4ZnUbHgMC4JJEpwtFff/999+VquDX51z5e/7556P9aoWJyvHFZhPvJzcfbTaEspdj4jMxBPJCoCoSJBiKCON0ZPGgFJHFT0bBUOkAqf2veqQS0WqccTQG1qs6RlSxhivqu4weLK+99prrJXxoVxUMFUYP6xSSaAQ6zcL1SYCSTvWJyv0K0aP+IVco0fqIaMicsfp+hwwZ4g9XJ8sk3DiQWgDcGNQHnnhcorN9UFJVRJtLMBQ4ewmvWbaXlLomWp1b64eT01K12eh6qW84sY1OI0oRGa8JIlLhPVZXRBsGQ6lVIXFMFgyVCEvOhUa0OUNlFT0CSSToafK7P8aknv/sx9SDr3+Wunbo26lrhrztNNr9iEL2f276zyNKwqoR+oa+88wy6RixKlk30UaIMj3ooINSTKeICw9HT05++kT40GafmlTjzVJEenrCQLsMp/egzdFOzbgppo2EggbG9BF/zEKJlvPzwoOYaUH0zZiYZlRTqQluHCucosPUl7hAGv7cqyJatNWvv/463jylwUNR+2zTe+qTaMHYnw/klySQJS8+6vus8NKIFuvbbrTRRimdz1upuWafiuoQKeylroh21KhR0fG23HLLyMrjj8u/RfXjRnVMo/XI5L40os0dK6uZQSAiwUSSTBdGv5k602cVp777c2zq01/+dPNqr1UCvv3FD2KYlncYHSNWI5dNHnD+Ybb33nunPvjggxQPPubMokXwgGM/2qdmxHFdxomW/eoTS6kfLcX8WU1WkdLEBFG/kEcoGqUa7UPD0+jNFA9VNAQ/h9SPqTaJljFgBvR9a0SyO244tlzXa4IbfUMm/vhMNUJrUz9viulPnKtmqYr2V0W09IEGet999zlNTtNfpsCVObDsQ2MOpzGF16w+iVbzJEfnw5iwcugn9VLqv4+g9iZpxh3XesMXE80kldK0iinIDtM582M9lnFTfF0RLYMOj8tLKmNmXjIWHw0qjMbE2Ixoo8uc84oFQ9XAr93cm+jd5aaGpOOWMtFLDpRwPUCJYqKcfGhxsMvtqRD4lO7DHyNWNadNsjSRXUi1o6g+wU9K3tE22XGIYvUp88JgqL322stFV9JPkhCxTLapUDRZhKgGHU25CfexTg5cP32k0GCopA+/++koHIuoaDU7VgqOYl9VUhPc6A9cTzvttOj84sfgwwAEgzE1hKlWZDHyEqZg5LxIe5gkpGBUAo5SZlInvGZKQokR23URdcyxudY6x5XVSMIUjKoZClO8kKSUnWStypYXmjZEJWuiDpflim2kroKh6JsUjOAf5vam3AvXcM0117QUjB6QfJc5U7JVNAQyCCRpm+iikT5aYaMybJV2u4bp1ulf7UvNVYUImioZhch04zUE/zau03JSmlquQvdx7Ug/CpDSqTYV2uqDxpmUk3ywdKaJ3J32ignUH5MMUiTN0PSGkWZHIgIvoXaEZlOVcHz6xVcaF843DPQKteZ43aq288XN9wUmmHU33njj6NwZK1hjcmfJ9gEHHOCbuGWYZAGLAxj4RBweQwKVCGSLSy7Y+euPOTZJSHTBcXTudIXd3h8N5kmCyRdfORqtH6dOfYmq6nQkZ8rXVJKJ5nyPcxwvzv2EE05wgV5RZ5mViy++2B2LNkkSukSSTNJcBz9W/LJxIcBOI4tTmoIxqkd9xoMlgfNlW9NFxpvadjUImEab75uJ1cfd4FBgekhG/9Tt8qk5lSDSSinNVKGzZTO70q3QcsPS9E4tS3fvtOZKfdWggCk5fM2EaQlM4k+an5tNOyLZBG3RgMmlG58KkzQc9cmKprVzOWj5gg7JFRqj5IJb0nmBF1+UYR6n/8RfUr1sZdxf//zzT5S/Ge0u6Zpla1+f5UqY7lwZs89f7Y+PhQBLSlXXn9zDJP9XknN5nrPNI/Z91seSnM5MUwNz7t9c8jfXx7ga8zGMaBvz1ZtHY+ehks+Dz9OqG26GRCPODak6qJjvMQqFIhvRFtqvtTcEDAFDwIjW7oG8EciHBMu5M0l7DQ5dXtEV5nOMoJcarxrR1hg6a2gIGALVIGBEWw1AtrsyAtWSoNdaaeqtxRW6ybCqLvz3aSvs1o1qjxFvUOC2EW2BAFpzQ8AQyIqAEW1WaGxHNgQgQXyX+NHwMRF1mospmTq09cJqGIjMfqJLSZDfoUOHnPr0fRW6xC+lAUSuGz4qoJ/DK7RLa28IGAKGgEPAiNZuhBohAGFCsKF4IvVL9lGPgBCW/LHPi1+nPBTq+31hua0bAoaAIdAYETCibYxXzcZsCBgChoAh0GgQMKJtNJfKBmoIGAKGgCHQGBEwom2MV83GbAgYAoaAIdBoEDCibTSXygZqCBgChoAh0BgRqBOiJbilTANlCJbRXHqiyfSIinGpCRxI4XpjRM3GbAgYAoaAIWAI5IhArRMtKclKS8uUaMtyHIJVMwQMAUPAEDAEmi4CtUa0aLElJaVSUlrSdNGyMzMEDAFDwBAwBPJEoNaItri4xEg2T/CtuiFgCBgChkDTR6BWiBZz8Rz9YolJ80GAhBItF1ggndrJ5ZvIpHnCH+9yUmQSU2T88XM1gxR+exNDwBAwBJobAgUTLSbjOXOKzSfbjO4crvkCSrKzZ83SsybQTRdkfHJLgCDVIsFwmp6xLCWlZfoipp8MW2aZZdwLGWkbLfMTOJkYAoZAc0CgYKIt1YcmD1GT5oMARIs2myrTqPL5gvN2yqxGnOuSYv12u0acz9XguBL9m6v3yWzp2qWr7p/rciQb2QbY2aohYAg0WQQKJtriEvXN6p9J80HAa7QLzK85jLEGZz7q7g3DGI3dZC43tQvCLZNidS8Uz54jU/VjBD179HAvZ9w7fETAxBAwBAyBpoxAwUSLNotWa9J8EPAabcuWLctPWr93l7Yep+3HzJ9mDcplPnVJsRJtyWyZrWTbunUrWWSRRZ0ZGf++abblMNqaIWAIND0ECibaWbNnuwdp04PGzigbAp5oW7dq7TTXNLVSW9cc2yrpQrAEQvGn/zG3Go12TvEcadO6tbRs1coR7hyi1VWz5Ys9JoaAIWAINEUECidaDYhxmZ+aIjp2TokIeNNxG9VMCXwKpZx0M+ZjLaA+vtpiDZqbrX7aNq3aSOu2raWsuEwJtoWUovEa2YYwJq4PefppnUJXKqussoqsvvrqiXUaW+Evv/wiX375pbNq7Lnnng3GlfDrr7/K4489JiuutJLss88+tQIr1hteKJvjS+VXX30lP//8s7TWF+zddt+9VvBsTJ0UTLQzlWh5kJo0HwS43gRDodF6nk0TbEizSrAaDIWCS1CUUq2LTJ81a45qthDuLJk5W1/S9OHTrm076aYfe8cNYT7b7PfRBuuvL8U6je7gQw6RU045JXvFRrTngQcekJtvusmN+P0PPpC2bds2iNH33X9/+fHHH91Y7r7nHllvvfVqNC4I+5WXXxaI5rvvvnPR+rwkrbnmmrLvfvtJx44da9RvY2t09dVXuxeX9u3by3vDhze24Rc8XiPagiFsfh1ERKsm4GrFmY61ltNqRTXXYkcWJUoYPslJaYlGrqv/tkePnm5fc3zjrxZHrWBEmwtKtVPngL595YcffnCd3XPvvbLuuutGHY8dO1aeePxxt73DjjvK8ssvH+0LVz75+GP3QjRz5sywOFovKiqS226/XZZYYomorKmuGNEWqI5yE5k+21T/eSSfVwWidUpsoMlGq9GKcy1gYMbFwJJ5tCU6t7ZMU3ayTrBUmWq2BNUtsuiiriz5yM271Ii2/q7/iBEjZPATTzgS3TtmOkY7PezQQ91gLrv8ctlpp50qDezjjz6Sfv36OZdImzZtZNddd5U1evWSSZMmyRtvvCFfax9Il65dZdjQodK2XbtKfTSlAiPaAol2Rpa3taZ0k9i5VESAW4aEFQQ1ldNpxTrlW+katGmh04CUUzPabTpQqgzC1Ym3KZ0ChP+xQ4cObgpQK/XlmFREwIi2Ih7zaisXoj311FPlrTfflAUXXFBuuvnmCqZnfLVnnnmm2885DFDT+eabbz6vTqdejmtEa0RbLzdaUzoIt4zz0eZiOg5OnHaOdlnqipsAxDoarRJtmSbAaNWyldN2C7wtg6Niri6RUaNGCZrFUkst5QJvKlSoYmPGjBnyxx9/SDvVODDxVZjSVEU7tPS///5bpzPNlmWXXVbyfXEYN26cYKLs3r274NdC6ptoC8GtCmgq7Mrmo+X8x48fL926dZPOnTtXaFPdxoQJE5zmiGk2CXdwRbPs2bNn4v7q+q+OaLHSbKHEOX36dNltt93koosvrtTlyN9/lz322MOVE2x1zrnnVqqTS8FMvT//HTPGWYW4V3gBzlUg/N9++02n2i0iXVWzjgv3Lvf+wgsvLIsttlh8d+I2bf7R+550q2SCa515RhjRFvhEM4028X5r0oVxos3orHrOGIZV0gWZJeTaQgOfSmTc1GkyasxkGa9JKyZMmSkz5pTIqbtuqqSrlOvIl4ZEKKfNy66vAn4++eQTuVm1iV802hHSQNAweqkJjwcbDwIvkydPlq232sptnqv7Vl9jDbn2mmvks88+81Uc2e61995y/PHHZyVcomiv0cCP77//3pEsjSFnHuoHHHig7LzzzlF/rMSPy5zihx56yD3g2H+xPqT76MMaqYpof/rpJzn2mGNk6tSpziow6OGH3UuFa5jnTz640fVJJ54owzXABcwGDhyYeLTjjj1WPlaf5TrrrCMEF3kJiXb4++/Lyy+9JHfedZdMUJL10kMTnPTTY2yxxRa+yC3j2LVfaCG5V/vG7IsQWMf1Oumkk9xL1jPDhjmfqO+b67LSyitL/0sukSIlqVBu0fuGc+F+YVzIc88+664HL1Gh+JiCK6+6SrbddlsZNXKkOyb3NOPeZpttwupunX1cT+7LjTbayI2rUqUqCvAf337bbfJ+ZmxU5aXCR0nH77OrdGxPDh4snfSlBVM15P+hBp/xIonwb+GCCy90vmheEG+44QancTNOBBP3bn36yHF67yfJf//9JwNuvFFeeOEFncpX6qqAy1Zbb+2weFjvR6K4LRgqCb0cyoxocwCpiVXhH583HcdPbeS4yTJq7CSZOHWmjJ8yTcm0VIq6dpSh73/rqqaUSFSVdWbkTgu3kwFH7urKmf6Tnn3LnNv0N40LSWTx6KOPyvXXXefe9DkAffmHBttEt944YICsrw87BC1oG30oIGgYzz//vGQLYmEayvkXXODqhj/PP/ecXKIPbf+gCff59eNPOEGOOOIIv1nhuFv27i3vvP12NGYq5UK0kPvRRx0lPOyIYr3jzjtlJZ2WUhPJFzeOcfxxx8kH+tBeddVV5eFHHkk87FFHHimffvqprLnWWgK5egmJtu8BB8ijWdpDmpxXGP0bXrMd1U/62quvRi9Uvn+W7CMb2S233BIWR+uQCONYcsklo7IblTQeevBBR14f6wsbAkFxfbPJ5VdcITtqcFQugsa+nZIyctDBBwum5lzld9VCDzvsMPdSla0NL3X06V8CLr/sMnnqqafc/dFLI565z+LCi8etSt4X6L09TrX+JDn88MPlBPU9h8L9zosU1zdJwJcoa66PEW0SQjmUGdHmAFITqwJhxU3HvPeiz/a78xmZOG06WRldAWS66ao9Zcj737j9DgoqaiapTgu3lZuP7JNuqPXThuW0qRd/bU2JFvNV7y23lFk69QxzL2/va+kDngfzu+++K1fr2z3nsNbaa8v999/vhhQ+tF2B/kCovZX8uqr5Em3sMSVv3vYRtN4wSIapSQTFTNRjoFmcrNNv1tb+0X7Q9garNuE1qbffeceZ4+gnflxMbX014hVCwl+NqdubTpM0WqaPQGKQLNrKXaoNoj3XRGqCG8epLaKlr85durjzR8ubMmWKu16QL9eLl4hH9Br4KN04dhAlGiSEz8vHFUp8XA8vmEhPPe0099DHfHybksqXX3zhdqOpHak4ekkiWl68OCbTdM7LmHpPOvlkd4/QrouOHQ04F7nyyitdsBV18eFuttlmuTQTCPpgJeaxai7m38f+eq/g3+Ve4T5Da//rr79cX9dce22kTXui9QfZT6cv7bLLLk7rJ+hryJAhfpdbci9jDQDzjzSw6zrtC5M49ycafmii9mZhGjLHe6+99nL/3n5Vy8KLL74ob7/1VtS3EW0ERX4rRrT54dUUakdEG8yj9efV785hTpt1dmNl284d2stmq/dQokWjVZ1VH5jOmKwPiU4Lt5ebj+qj2whMy1qLglMzvq1v66foAxC5Ws2/mPNCeUxNWASqIASioN3GH9poV2eccUbYTPCrHaiaAg/c+AMHU/FNqiEjEHDcXIjpDA0bQZP2ZtDwuPiQb7/jDveQchVjP3GixUQKyWJC5WUAki0qKoq1yn2zJrjRe20RLRrVffriE0/Gcc/dd8vtOg0GCX2eIXYLqdkYczn+cC9ff/21HKpzjhE0u8d0Ss4KK6zgdzuzKVol5tPN1Sw9IHP9qJBEtL5hdT5aXy/bkmk/x6iZn39HG2ywgTOVZ6sbLw8J8zi1JByploxQMFvvu+++bpocL3rgiYTt9tH955xzTtjMaaQffvihK9tGMYE8wxfdOxT/u/U6II8rMa+44opuffTo0bKrEjaymM6F599WODeYF80TVQP2Jm4jWgdV/j9GtPlj1thbeKJtpW+3pFpMq6ScVUpOvEs12qkzHGeiuEKmm63aXYZ+8I3uVaJ12qzW1JXOHVSjPXo398Ap/0ed/uxiIRotWit+QyTJ1OV2xH7Chzaa0bBnnqnw1u6rDxo0SG64/nq3+aSa4pZbbjm/q8olGueWGR/j0UcfLceoqQ0Jj7uFauE84LNJSLR9dLoIGhhBPWh4+D1D02e2Pqoqrwlu9FdbRMv5JPkAud/21+QOZBZaWX2qj+rDHAmx22777QU/ZCg85DfbdFNHpNnM2ofqNB2m2nTv3l2GqGnYS10RLcFHkD+BUrzgPaLaepEeO1cBB/zxaI6Y6cv/3ZT38JZqkD9psg20Tk/EIdEO1fOMH/NBNZPjY0VuufVW2WSTTco71DWmK/FygIQvr6+99pqcmXkhTWpHfeIGiH/AH21ECyI1ECPaGoDWyJt4ovURhZwOdItcN/QdF/jkSpRUuyrRrrx0N3n3u991bzowylXUh2fXju3l2B02TDfO2Jrpx32oogDTMSZH/K0+AAoz7A477CDradIBHjBJD6fqHtpuzPoTakmXqt8rHnTi641R097EiRNlmj5kpulDdboGgPXv39/txkeLrxYJj3uK+tQwC2YTT7SbKnkQDEP/yEuaeSgpKhQNDX9eNgGHa1XL9pG5NcGNvmuLaDHlbrTxxonD9USB1ksGKZYhdpiEDzrooEptsWaMV3Mr81gvyeAfVmKaDb7DoqIiGapmVy91QbSYfQ9Rkh3z77/OZEugXrbz9eMIl/y72ETxwSeK6fess84Kd1e57vEjet4Hd4UNhqrp2N+fL6i515vnfR3uI1wpCEFf2+uLDULQmHe/vKMvuJiwk2RftfJgzjeiTUInhzIj2hxAamJVIFofDJXWZzNarS7uePlDGTdlhvPRppQ826vWu9lqPeTTEX+iz0akikbbrlVLObj3upQGktL0jMXuYZJEiEHFKlffe+89OU2Jy5Otr9ypUyfZXkkXE2SojYYP7bi/zrdliZmRhx1CwMnpp5/u1vmZpmRKOkFSzOFDyybZiJZI6Kry6nqiDfvlOryqWgX+x7hAPN99mw5Ci+/z25j0wmQJ+eJGP7VFtK8o4SVNM+EYj6vZF986MvjJJ10iifCaZcPOE20fjZi9OCGQqb6IFovG4f/7n/yu7gcEUttFyT8f+Vav5cGZl4kLNUJ498z0oFz68ETLffJm4DP1bUOifVEjvxdXM3Ao2Yj2BPVtcw8R8PSqXr9sct5558mLGpFsRJsNoWrKjWirAagJ7g6JNn56/e5SHy1Em2FPfLSbrKamY/XRekJN54dS/61qtDcfxcMmY4DO8DVv7oWYjv2YeBATPfzqK684cxvj9oLPrv+ll0ZZfcKHdjwy2LdhmY1o8VUReekDUagLqfNgY9oJb/rvahAUUptES39MmWFKTBigQvmd6u/9488/WU0UXmSIavYara+UD260qW+ifUIDy/C1htesIRMtc12PUnfB9xpEhRBAhck6X8GKQWpIBOIiWClXmddEe76Ol6k/RrS5XrFYPSPaGCDNYDPJdOxPu5/z0U73m+qjbSebu6jjr5VPlWozZMqyM8FQR2vUMeLLdXW2Ei3msUI0Wtdn8INPjPmhRFgSQYzQP2/3BG+ED+0kf5/v6ptvvpFDMubdS5Wod84EgqDJ+mkrBFIdpUEqTPT3gma9fiYxfW0Q7Vsa8EXkK9NqEKJP0c5qW6rDjeN5ooX8IMEk8Un6q5reU4jpuKESLR+BIBjI33Ohfz4Jp6rK6AtrCvfS3kqy5yp55Sp1RbS5mo730wAsfOxGtLlesVg9I9oYIM1gs0qidVHHqtE6HDTgqWNbN73HBUMpmaa5Ns2qnTu0k5s0GMpruh662tJofX/xJdHBAwcOdMU3aADIlhqEFBJtVcFQYfSwN2HSkQ9SWVRzNeMzjWuJkDxzXZFCidZHRONTRcPxU45qYo50A8rxJwk3muIrxGrACwsvAHHhpYlMSVgDqiLaXIKhmB9M9DASXrOgKCsDAAAHu0lEQVR5RbRYBHxCkfh5E4wFNq+raR9Bi0WbLUQO1Jc4Itz5kAHRv36ebNgn9xoR6XySbk+daoPUFdGGwVC3ahDVxrEgKo5twVD63NOHJk+9Got9VKDG0DXahhHRJkzv+WH0WBk1bpImq5gp4/6b5rTGZbsukk5Y4Vg2o7oqu3ZWbdebjh0YmV2FEi2BLJ9rRifmNF6h8xWZ3xgKcw15QCJ36ZQFklaED23K4/5Xypg6wfQeCAMiJSjHm2t9sAcmYnxcBJ14QQNhqpBPElAo0YafyWMeLX475sAypvs18QIRtjWRmuDGccKkEw/oCwzJCUJhygfZspCqiJYAJ8a/2mqrhc3lXv16zm36EEeyTe+pT6KF6CA8hDmj551/vluP/1yqflg/P9W/HMXrZNvmuvKd3q00WhcXhJdw/m3Si8koTTWK9YA55CSm8C+UdUW0f6prggh4BL8uEeHh9B6eFWj0zPFFTKN1MOT/Y9+jzR+zxt4iIloNdEqSDF8Gu1IaiVzqCHiGBjr9oUQ8atx/0q5NSzlmh43SGq1vpMs5xYX5aEmVR7AIspp++7OfRviSHpBxY2q9SsmXiF20TwKJyDoUJ1raYp4jYQX5dskOROIEfLHImaqp7K8PNC9E+D6Y0ZK33W4715bUgT+qX42pE2HWnNokWo7/smrQ55x9thtKN81JS3Ynzi1fqQluHINUfszpRIhWhfSYhsP8Xr7FChGT7ACpimjZT1ANLzMbbrih04QIzhqkKSnRDnmAM6XFT2MKr1l9Ei3nRUIUhDEdrlHkfEZvmaWXjgLLQlcC9fjKTzbBhbGd3jPch0gYeASez2mcgddcOWdcF//884+ri8sAi0xnJWPShfJSM1JfCBFvrWG9roiWvkPy5yWPfzdcZwK/8Mu+8frrVHNiROuRyHNpRJsnYE2guifa9Dxaf0IBU1YyBvs6gSvWVfdtyvdTY46ScSHBUGjEvO1/q/5ULzyoeFh7YWrShRddFKXMCx/au+++u8toQz9JEmpVfj/aLgTqp9z4cr+EfDGvIrVNtPTpp6OwTqICNHWvbVOWi9QEN/oFVxIg+POLHwvyX1g1faZ3VEW0aOqkPUwSSIhkHj5lJnXCa1afRMuxj9BUhJ9//jmrkfgUjHwMYduE/MZRxYQVptx4K0hocaFqPBqbe+1QNUPjOsgmaNpg4gm6LokW1wB5tsO84OG4uP5r6IuupWAMUclzHRMF3xk1aT4IQLQ8xNu0bqUnjYc1iTC1VOulA5rS82ep6USrawbGQJOt2L42gqHQoO6/7z6XhIB5i154o2ayPxppmKow/tDGfHmdzjH1Kfpojyl6D51LeKImw4j7YNmPlnGxkjeZg/y0IggdDY3EARtrWkHGRaDUsRkNMNSOqosk3Ui1PP698ZCN+/rol6AkH3QTkjljy1Xyxc33S6DOlZrykKlNYdpDiBESRuvBdxhmK6JtmCgBUzxTQO5QQiURh5eioiKXWhHrQii5YMf8aa4/L0+8WMXlbLUEoHVjfXg6SEPo/dFc8w8yGZPCtsyJZeyMl6k7CG4KjhfeS2GbqtY5dxJYIASgHabXGD9r0ksddX7UhBS3au5mHwxHGS8jnAcpPHfT8w2Fa0MaUNJ0vh5omL5OSO5xYqcO5A6GSJja0RXoDxiQ+QzrCsTrpbeavsm5jJUFixABgqQgbW5SsI92lvqGQk2huQHYHM/Xa7Q+YYWnSd63vBuWZSS+QlRQcaXCbt0o1HRcsff0lBwChvyn7pKimcOHY6gd8dCjLYElS2jGqCSCjR8P0sHEPL9q0UtqrmJ8j41R8EVXh1vSedGG2A18drzY5CvcX/8qOaKx4Z/Ex550zfLtty7qQyouTkXHHEaZ18axwN9rudn6ow4veODDF3hyuT+z9VUb5WDB9Wc8mPhzzf1cG8duyH0UTLSYm0oz/peGfKI2ttpDoFyjTfbRVjxSOY26Nf2JtNmKFd0WdYr1nirEdJzQbbVF2Yi22oZWwRAwBAyBahAomGiLNaLSm8mqOZbtbiIIeI22lUYdOw1Wz8t/rSf5FMvJNnm/L03Xqw3Tse8x16URba5IWT1DwBDIF4GCiRZtNlvQSL6DsfqNA4FQo82PQstru7XyzejEKTKNNoLDVgwBQ6AJIFAw0fLQJUq0bG46fL8JYGKnUA0CXHPy+hJk4gIfKjhk042pU8mvpmWowOE+v45LF5IlyGoxnU6zkEapVmpfzbgK2Y1viQn3CFMtevXqVUh31tYQMAQMgQiBgomWnnjYztEAEJPmgwAE6f/8WUOMnjjDpd9f1dK3pQ5TEuqTZKsal+0zBAwBQ6BQBGqFaBlEcbH6aktLCh2PtTcEDAFDwBAwBJoUArVGtGgwJSWlRrZN6vawkzEEDAFDwBAoFIFaI1o/EMzIpaVl5rP1gNjSEDAEDAFDoFkjUOtEC5pot2Walo1EFimWBMHg0/NQh+u+zJaGgCFgCBgChkATRKBOiLYJ4mSnZAgYAoaAIWAI1AgBI9oawWaNDAFDwBAwBAyB3BAwos0NJ6tlCBgChoAhYAjUCAEj2hrBZo0MAUPAEDAEDIHcEDCizQ0nq2UIGAKGgCFgCNQIASPaGsHWcBpV9YlC/9HnhjNaG4khYAgYAs0Pgf8HrdDnhTNj308AAAAASUVORK5CYII=;" parent="1" vertex="1">
          <mxGeometry x="-510" y="488" width="251.94" height="135" as="geometry" />
        </mxCell>
        <mxCell id="0xrCPZ1beF0Nvzpc6FTi-1" value="" style="curved=1;endArrow=classic;html=1;rounded=0;exitX=0.576;exitY=0.227;exitDx=0;exitDy=0;exitPerimeter=0;strokeWidth=3;dashed=1;entryX=-0.002;entryY=0.658;entryDx=0;entryDy=0;entryPerimeter=0;" parent="1" target="yfoGOaeAojlxQzWnKSBf-71" edge="1">
          <mxGeometry width="50" height="50" relative="1" as="geometry">
            <mxPoint x="-301" y="719" as="sourcePoint" />
            <mxPoint x="499" y="529" as="targetPoint" />
            <Array as="points">
              <mxPoint x="-210" y="610" />
              <mxPoint x="-120" y="550" />
              <mxPoint x="-40" y="440" />
              <mxPoint x="180" y="290" />
              <mxPoint x="480" y="290" />
              <mxPoint x="920" y="260" />
            </Array>
          </mxGeometry>
        </mxCell>
        <mxCell id="0xrCPZ1beF0Nvzpc6FTi-17" value="" style="curved=1;endArrow=classic;html=1;rounded=0;strokeWidth=3;dashed=1;entryX=0.486;entryY=0.756;entryDx=0;entryDy=0;entryPerimeter=0;exitX=0.294;exitY=0.58;exitDx=0;exitDy=0;exitPerimeter=0;" parent="1" source="0xrCPZ1beF0Nvzpc6FTi-13" edge="1">
          <mxGeometry width="50" height="50" relative="1" as="geometry">
            <mxPoint x="-540" y="1260" as="sourcePoint" />
            <mxPoint x="-490" y="490" as="targetPoint" />
            <Array as="points">
              <mxPoint x="-560" y="910" />
              <mxPoint x="-570" y="740" />
            </Array>
          </mxGeometry>
        </mxCell>
        <mxCell id="0xrCPZ1beF0Nvzpc6FTi-18" value="" style="curved=1;endArrow=classic;html=1;rounded=0;strokeWidth=3;dashed=1;" parent="1" edge="1">
          <mxGeometry width="50" height="50" relative="1" as="geometry">
            <mxPoint x="122.5" y="539.9961904761905" as="sourcePoint" />
            <mxPoint x="-330" y="561" as="targetPoint" />
            <Array as="points">
              <mxPoint x="-5" y="477.1390476190476" />
            </Array>
          </mxGeometry>
        </mxCell>
      </root>
    </mxGraphModel>
  </diagram>
</mxfile>
